<svg version="1.0" xmlns="http://www.w3.org/2000/svg" width="40" height="40" viewBox="0 0 30 30" fill="#323243"><path d="M8.21 7.271c-0.185 0.045 -0.325 0.155 -0.407 0.319 -0.098 0.196 -0.1 0.379 -0.003 0.579 0.113 0.23 0.379 0.366 0.636 0.325 0.053 -0.007 0.1 -0.018 0.103 -0.022 0.01 -0.009 0.177 0.158 0.177 0.177 0 0.009 -0.021 0.035 -0.044 0.059 -0.098 0.094 -0.176 0.256 -0.198 0.413 -0.018 0.133 0.031 0.294 0.142 0.476 0.026 0.044 0.031 0.06 0.018 0.081 -0.01 0.015 -0.075 0.116 -0.144 0.224 -0.385 0.599 -0.64 1.314 -0.732 2.051 -0.021 0.158 -0.051 0.592 -0.053 0.725 0 0.041 -0.006 0.045 -0.107 0.076 -0.151 0.047 -0.28 0.127 -0.406 0.255 -0.127 0.127 -0.204 0.25 -0.261 0.416l-0.04 0.117 -0.004 1.545c-0.004 1.711 -0.006 1.664 0.091 1.868 0.125 0.262 0.338 0.451 0.609 0.542l0.113 0.038 0.01 0.215c0.034 0.74 0.187 1.371 0.478 1.976 0.412 0.858 1.078 1.572 1.938 2.076 0.482 0.284 1.102 0.511 1.651 0.609 0.479 0.083 0.267 0.079 3.105 0.085 1.89 0.003 2.669 0 2.812 -0.012 1.627 -0.139 3.042 -0.984 3.882 -2.32 0.23 -0.365 0.456 -0.899 0.562 -1.334 0.085 -0.34 0.133 -0.693 0.149 -1.071l0.01 -0.223 0.098 -0.032c0.311 -0.1 0.568 -0.35 0.671 -0.652l0.04 -0.117v-1.582c0 -1.73 0.004 -1.648 -0.088 -1.846 -0.123 -0.268 -0.385 -0.495 -0.653 -0.565l-0.069 -0.019 -0.009 -0.234c-0.044 -1.024 -0.3 -1.859 -0.819 -2.659 -0.117 -0.18 -0.117 -0.18 -0.092 -0.22 0.144 -0.223 0.183 -0.401 0.132 -0.595 -0.026 -0.104 -0.066 -0.176 -0.161 -0.29l-0.069 -0.085 0.086 -0.088c0.057 -0.057 0.094 -0.083 0.108 -0.078 0.051 0.021 0.204 0.031 0.286 0.018 0.113 -0.018 0.268 -0.1 0.346 -0.183 0.125 -0.135 0.19 -0.352 0.161 -0.521 -0.023 -0.133 -0.104 -0.287 -0.193 -0.368 -0.315 -0.284 -0.794 -0.19 -0.983 0.192 -0.045 0.092 -0.048 0.108 -0.048 0.246 0 0.081 0.004 0.17 0.012 0.198 0.01 0.048 0.006 0.056 -0.078 0.142l-0.089 0.091 -0.076 -0.062c-0.114 -0.094 -0.214 -0.132 -0.362 -0.139 -0.152 -0.007 -0.262 0.028 -0.422 0.135l-0.104 0.07 -0.114 -0.069c-0.627 -0.382 -1.318 -0.609 -2.121 -0.699 -0.252 -0.028 -5.123 -0.028 -5.361 0 -0.833 0.097 -1.428 0.289 -2.098 0.68l-0.151 0.088 -0.111 -0.075c-0.275 -0.185 -0.562 -0.176 -0.795 0.023l-0.064 0.054 -0.086 -0.094c-0.082 -0.089 -0.086 -0.098 -0.075 -0.146 0.006 -0.028 0.012 -0.117 0.012 -0.198 0 -0.138 -0.003 -0.154 -0.05 -0.249 -0.132 -0.267 -0.42 -0.406 -0.697 -0.338m0.22 0.318c0.149 0.038 0.243 0.186 0.214 0.34 -0.029 0.161 -0.148 0.252 -0.315 0.242 -0.163 -0.01 -0.259 -0.107 -0.27 -0.27 -0.004 -0.073 0 -0.105 0.026 -0.16 0.035 -0.073 0.113 -0.135 0.193 -0.154 0.069 -0.016 0.079 -0.016 0.151 0.001m13.38 0.04c0.161 0.098 0.186 0.328 0.051 0.463 -0.057 0.057 -0.122 0.082 -0.215 0.082 -0.335 0 -0.407 -0.467 -0.091 -0.584 0.069 -0.025 0.18 -0.007 0.255 0.04m-4.166 0.264c0.073 0.01 0.157 0.021 0.187 0.026l0.057 0.009 -0.012 0.391c-0.004 0.214 -0.012 0.393 -0.015 0.396s-0.013 -0.001 -0.023 -0.01 -0.023 -0.015 -0.029 -0.013 -0.023 -0.007 -0.04 -0.022c-0.026 -0.022 -0.029 -0.022 -0.038 0.015 -0.006 0.022 -0.015 0.031 -0.018 0.021 -0.004 -0.009 -0.013 -0.015 -0.021 -0.009 -0.007 0.004 -0.013 0 -0.013 -0.007 0 -0.009 -0.016 -0.015 -0.035 -0.013l-0.035 0.003 0.029 0.041c0.032 0.045 0.042 0.048 0.067 0.023 0.013 -0.013 0.018 -0.012 0.018 0.007 0 0.013 -0.007 0.025 -0.018 0.025 -0.013 0 -0.013 0.004 0 0.018s0.018 0.108 0.018 0.335c0 0.419 -0.021 0.494 -0.185 0.661 -0.042 0.042 -0.1 0.082 -0.151 0.103l-0.082 0.034 -2.249 0.004c-1.576 0.003 -2.276 -0.001 -2.342 -0.012 -0.157 -0.026 -0.267 -0.1 -0.352 -0.231 -0.075 -0.117 -0.088 -0.204 -0.092 -0.604l-0.004 -0.359 -0.051 -0.001c-0.032 -0.001 -0.059 0.006 -0.069 0.019 -0.015 0.019 -0.019 -0.062 -0.022 -0.391 -0.004 -0.407 -0.004 -0.415 0.026 -0.425 0.037 -0.015 0.368 -0.044 0.555 -0.05 0.073 -0.001 1.184 -0.003 2.468 -0.001 1.622 0.003 2.377 0.009 2.468 0.019m-5.728 1.551c-0.003 0.012 -0.034 0.019 -0.076 0.019 -0.038 0 -0.133 0.013 -0.209 0.029s-0.144 0.029 -0.149 0.029c-0.021 0 -0.012 -0.034 0.015 -0.054 0.023 -0.019 0.022 -0.021 -0.007 -0.012 -0.019 0.006 -0.034 0.003 -0.034 -0.004 0 -0.009 -0.012 -0.012 -0.028 -0.007 -0.015 0.004 -0.031 0.001 -0.035 -0.006s0.019 -0.012 0.051 -0.01c0.034 0 0.081 -0.003 0.105 -0.01l0.045 -0.01 -0.042 -0.001c-0.076 -0.003 -0.026 -0.021 0.075 -0.026 0.056 -0.004 0.104 -0.015 0.11 -0.023 0.009 -0.013 0.012 -0.013 0.012 0 0 0.01 0.01 0.019 0.022 0.019 0.019 0 0.022 -0.067 0.022 -0.52 0 -0.286 -0.004 -0.52 -0.01 -0.52 -0.032 0 -0.271 0.064 -0.416 0.111 -0.3 0.097 -0.798 0.322 -1.049 0.476 -0.393 0.24 -0.812 0.595 -1.078 0.911 -0.305 0.36 -0.532 0.71 -0.693 1.065 -0.17 0.375 -0.237 0.564 -0.321 0.914 -0.038 0.152 -0.063 0.229 -0.076 0.229 -0.026 0 -0.025 -0.04 0.01 -0.239 0.111 -0.656 0.35 -1.258 0.719 -1.819 0.185 -0.28 0.341 -0.469 0.612 -0.741 0.628 -0.627 1.409 -1.055 2.279 -1.251l0.146 -0.032 0.004 0.734c0.001 0.404 0 0.743 -0.004 0.751m6.387 -1.437c0.211 0.05 0.542 0.16 0.762 0.255 1.006 0.431 1.837 1.208 2.329 2.184 0.234 0.463 0.372 0.88 0.447 1.346 0.016 0.108 0.032 0.209 0.035 0.223 0.004 0.018 -0.003 0.026 -0.019 0.026 -0.018 0 -0.031 -0.029 -0.05 -0.122 -0.133 -0.599 -0.379 -1.175 -0.703 -1.648 -0.517 -0.756 -1.2 -1.31 -2.057 -1.671 -0.318 -0.135 -0.549 -0.209 -0.791 -0.258l-0.048 -0.01v1.068l0.067 -0.001c0.037 -0.001 0.07 0.004 0.075 0.01 0.003 0.006 0.021 0.007 0.037 0.001 0.018 -0.006 0.035 -0.001 0.044 0.01 0.01 0.016 0.016 0.016 0.022 0.001 0.007 -0.021 0.034 -0.023 0.034 -0.004 0 0.023 -0.059 0.035 -0.081 0.016 -0.012 -0.009 -0.023 -0.01 -0.028 -0.003 -0.01 0.016 0.028 0.051 0.059 0.056 0.012 0.001 0.023 -0.003 0.029 -0.01 0.004 -0.007 0.015 -0.01 0.022 -0.004 0.007 0.004 0.01 0.015 0.006 0.022 -0.006 0.007 -0.003 0.013 0.006 0.013 0.007 0 0.025 0.004 0.04 0.01 0.019 0.007 0.022 0.004 0.013 -0.01 -0.007 -0.01 0.004 -0.007 0.025 0.009 0.021 0.015 0.037 0.029 0.035 0.031s-0.048 -0.009 -0.105 -0.025c-0.089 -0.023 -0.183 -0.04 -0.382 -0.067l-0.048 -0.007V7.954l0.034 0.007c0.018 0.003 0.105 0.023 0.193 0.045m-8.555 0.353c0.032 0.018 0.07 0.044 0.085 0.059 0.025 0.028 0.023 0.031 -0.034 0.069l-0.059 0.038 -0.057 -0.038c-0.04 -0.026 -0.078 -0.038 -0.122 -0.038 -0.113 0.001 -0.208 0.056 -0.45 0.258 -0.069 0.056 -0.12 0.092 -0.114 0.079 0.006 -0.019 0.001 -0.023 -0.021 -0.019 -0.015 0.003 -0.028 0 -0.028 -0.007 0 -0.019 0.322 -0.321 0.387 -0.362 0.031 -0.021 0.081 -0.045 0.11 -0.057 0.073 -0.028 0.229 -0.018 0.302 0.019m10.865 0.009c0.059 0.029 0.145 0.101 0.292 0.242l0.208 0.201h-0.06c-0.048 0 -0.07 -0.01 -0.116 -0.053 -0.1 -0.097 -0.302 -0.25 -0.362 -0.278 -0.088 -0.04 -0.198 -0.037 -0.264 0.009l-0.054 0.037 -0.057 -0.038c-0.07 -0.047 -0.064 -0.059 0.063 -0.123 0.078 -0.04 0.104 -0.045 0.179 -0.041 0.059 0.003 0.117 0.019 0.171 0.045m-9.091 0.814c-0.004 0.007 0.001 0.016 0.013 0.022 0.012 0.004 0.022 0.001 0.022 -0.006 0 -0.009 0.007 -0.015 0.016 -0.015 0.007 0 0.01 0.006 0.006 0.015 -0.004 0.007 -0.003 0.015 0.004 0.015 0.009 0 0.019 -0.012 0.023 -0.025 0.007 -0.016 0.013 -0.021 0.021 -0.009 0.006 0.009 0.023 0.018 0.04 0.021 0.054 0.01 0.034 0.05 -0.025 0.05 -0.029 0 -0.05 0.004 -0.045 0.01 0.009 0.016 -0.013 0.015 -0.038 -0.001 -0.013 -0.009 -0.031 -0.007 -0.048 0.003 -0.021 0.013 -0.029 0.013 -0.04 -0.001 -0.007 -0.013 -0.047 -0.022 -0.11 -0.023 -0.053 -0.003 -0.101 -0.009 -0.108 -0.016 -0.006 -0.006 0.004 -0.007 0.022 -0.003 0.019 0.004 0.038 0.001 0.042 -0.006 0.004 -0.009 0.016 -0.007 0.029 0.003 0.015 0.012 0.021 0.012 0.021 0.001 0 -0.009 0.01 -0.013 0.022 -0.009 0.012 0.006 0.034 0.004 0.048 -0.001 0.013 -0.007 0.034 -0.013 0.044 -0.016 0.012 -0.001 0.023 -0.007 0.029 -0.012 0.012 -0.013 0.021 -0.01 0.012 0.004m6.754 0.142c-0.004 0.004 -0.018 0.006 -0.028 0.001 -0.012 -0.004 -0.007 -0.009 0.009 -0.009 0.016 -0.001 0.025 0.003 0.019 0.007m0.327 0.094c0 0.007 -0.009 0.015 -0.021 0.015s-0.026 -0.007 -0.031 -0.015c-0.004 -0.009 0.004 -0.015 0.021 -0.015 0.018 0 0.031 0.006 0.031 0.015m-6.601 0.311c0.078 0.19 0.217 0.344 0.4 0.441 0.196 0.103 0.041 0.097 2.597 0.1 2.571 0.001 2.383 0.009 2.597 -0.1 0.179 -0.089 0.356 -0.287 0.413 -0.458l0.023 -0.072 0.069 0.007c0.158 0.019 0.385 0.072 0.543 0.126 1.072 0.369 1.811 1.295 1.934 2.432 0.016 0.136 0.021 2.802 0.006 2.725 -0.006 -0.029 -0.009 -0.029 -0.028 -0.01 -0.026 0.025 -0.05 0.029 -0.05 0.007 0 -0.009 0.007 -0.015 0.016 -0.015 0.007 0 0.01 -0.007 0.006 -0.016 -0.007 -0.009 -0.018 -0.006 -0.031 0.012 -0.016 0.022 -0.019 -0.158 -0.021 -1.204 0 -1.307 -0.006 -1.427 -0.075 -1.764 -0.146 -0.715 -0.605 -1.362 -1.233 -1.743 -0.236 -0.145 -0.602 -0.296 -0.79 -0.33 -0.053 -0.01 -0.056 -0.009 -0.053 0.026 0.001 0.021 0.013 0.041 0.025 0.045 0.029 0.012 -0.025 0.05 -0.06 0.044 -0.015 -0.003 -0.029 0 -0.034 0.006 -0.003 0.007 0.007 0.012 0.025 0.01 0.018 0 0.034 0.007 0.038 0.019s0 0.016 -0.01 0.01c-0.009 -0.006 -0.028 -0.003 -0.041 0.004 -0.025 0.015 -0.025 0.015 0.001 0.016 0.04 0 0.016 0.019 -0.032 0.026 -0.073 0.009 -0.054 0.019 0.032 0.016 0.06 -0.003 0.088 0.003 0.098 0.018s0.016 0.016 0.025 0.003c0.007 -0.012 0.019 -0.013 0.032 -0.004 0.016 0.01 0.018 0.015 0.003 0.015 -0.01 0 -0.016 0.006 -0.012 0.012 0.004 0.007 -0.012 0.009 -0.037 0.006 -0.025 -0.004 -0.042 0 -0.042 0.01 0 0.009 0.01 0.016 0.023 0.016 0.012 0 0.019 0.006 0.015 0.012 -0.003 0.006 0.016 0.009 0.045 0.006 0.034 -0.004 0.057 0 0.066 0.013 0.01 0.016 0.016 0.016 0.022 0.001 0.01 -0.025 0.029 -0.022 0.029 0.004 0 0.025 0.003 0.023 -0.079 0.028 -0.034 0.001 -0.066 0.007 -0.07 0.012 -0.006 0.004 -0.028 0.003 -0.051 -0.003 -0.029 -0.009 -0.044 -0.006 -0.048 0.006 -0.006 0.013 0.003 0.016 0.028 0.012 0.019 -0.003 0.047 0.003 0.06 0.013 0.013 0.012 0.021 0.013 0.015 0.004 -0.006 -0.01 0.01 -0.021 0.045 -0.026 0.041 -0.006 0.059 -0.003 0.073 0.016 0.015 0.022 0.013 0.028 -0.01 0.037 -0.016 0.006 -0.067 0.009 -0.114 0.006 -0.062 -0.003 -0.092 0.003 -0.113 0.019 -0.016 0.013 -0.023 0.015 -0.018 0.004s0.001 -0.018 -0.012 -0.018c-0.015 0 -0.021 0.015 -0.021 0.045 0.001 0.035 0.004 0.04 0.015 0.022 0.007 -0.013 0.021 -0.021 0.029 -0.015s0.007 0.015 -0.004 0.022c-0.013 0.009 0.009 0.013 0.06 0.016 0.223 0.009 0.223 0.009 0.214 0.025 -0.004 0.007 -0.022 0.01 -0.038 0.006 -0.022 -0.006 -0.028 -0.003 -0.022 0.013 0.007 0.018 -0.004 0.022 -0.056 0.021 -0.059 0 -0.113 0.022 -0.113 0.048 0 0.004 0.019 0.009 0.042 0.009 0.031 0 0.04 -0.006 0.034 -0.022s0 -0.015 0.023 0.004c0.018 0.016 0.038 0.023 0.048 0.016 0.013 -0.007 0.015 -0.003 0.009 0.018 -0.01 0.028 -0.01 0.028 0.012 0 0.016 -0.022 0.025 -0.023 0.041 -0.012 0.012 0.01 0.025 0.013 0.031 0.007s0.006 0 0 0.015c-0.006 0.018 -0.026 0.025 -0.067 0.025 -0.032 0 -0.054 -0.006 -0.048 -0.013 0.004 -0.007 -0.012 -0.004 -0.035 0.007 -0.031 0.016 -0.053 0.018 -0.081 0.006 -0.023 -0.009 -0.038 -0.009 -0.038 0 0 0.007 -0.01 0.01 -0.022 0.006 -0.012 -0.006 -0.022 -0.003 -0.022 0.006s-0.015 0.012 -0.032 0.006c-0.021 -0.004 -0.028 -0.003 -0.021 0.009s-0.004 0.018 -0.034 0.018c-0.023 0 -0.048 0.007 -0.053 0.015 -0.006 0.009 -0.004 0.015 0.003 0.013 0.006 -0.001 0.023 0.001 0.038 0.009 0.013 0.006 0.038 0.007 0.054 0.003s0.029 -0.001 0.029 0.006 0.016 0.006 0.037 -0.001c0.023 -0.009 0.038 -0.009 0.045 0.001 0.004 0.009 0.023 0.013 0.04 0.012 0.018 0 0.037 0 0.044 0.001 0.028 0.009 0.048 0.009 0.073 -0.003 0.018 -0.009 0.025 -0.007 0.025 0.006 0 0.015 0.023 0.019 0.076 0.019 0.041 0 0.085 0.009 0.098 0.018 0.019 0.015 0.012 0.016 -0.042 0.01 -0.037 -0.006 -0.089 -0.003 -0.117 0.004s-0.079 0.009 -0.114 0.004c-0.035 -0.006 -0.066 -0.004 -0.07 0.001 -0.003 0.006 -0.019 0.009 -0.035 0.006s-0.029 0.001 -0.029 0.009c0 0.009 -0.006 0.01 -0.015 0.006 -0.007 -0.004 -0.015 -0.001 -0.015 0.006 0 0.009 -0.028 0.018 -0.062 0.018 -0.035 0.001 -0.05 0.004 -0.034 0.009s0.035 0.013 0.044 0.021c0.007 0.007 0.048 0.013 0.091 0.013 0.054 0 0.076 0.006 0.073 0.018 -0.001 0.013 0.019 0.019 0.066 0.019 0.092 0 0.108 0.022 0.018 0.025 -0.04 0.001 -0.082 0.003 -0.094 0.006 -0.012 0.001 -0.041 0.004 -0.066 0.006 -0.026 0.001 -0.034 0.006 -0.018 0.01 0.013 0.003 0.022 0.012 0.018 0.019 -0.004 0.006 0.003 0.01 0.016 0.009 0.013 0 0.041 0.022 0.062 0.05 0.022 0.028 0.028 0.042 0.015 0.031 -0.018 -0.013 -0.026 -0.015 -0.026 -0.003 0 0.021 -0.04 0.021 -0.051 0 -0.006 -0.009 0 -0.013 0.015 -0.01s0.029 -0.004 0.032 -0.013c0.004 -0.015 -0.003 -0.016 -0.028 -0.006 -0.019 0.006 -0.034 0.022 -0.034 0.032 0 0.012 -0.009 0.021 -0.018 0.021 -0.01 0 -0.019 0.006 -0.018 0.013 0 0.007 -0.007 0.019 -0.019 0.025 -0.015 0.01 -0.013 0.013 0.007 0.013 0.013 0 0.025 -0.007 0.025 -0.015 0 -0.009 0.01 -0.015 0.022 -0.015 0.013 0 0.018 0.009 0.013 0.022 -0.006 0.012 -0.001 0.022 0.007 0.022s0.016 -0.012 0.018 -0.026c0 -0.023 0.001 -0.023 0.012 0.001 0.006 0.015 0.015 0.026 0.021 0.026 0.073 -0.007 0.117 0.018 0.059 0.032 -0.015 0.004 -0.004 0.007 0.022 0.009 0.054 0.001 0.064 0.022 0.01 0.025 -0.019 0.001 -0.045 0.013 -0.059 0.025 -0.021 0.021 -0.018 0.023 0.018 0.029 0.037 0.006 0.037 0.006 -0.009 0.009 -0.042 0.001 -0.048 -0.003 -0.041 -0.028 0.009 -0.034 0.001 -0.037 -0.026 -0.009 -0.015 0.013 -0.016 0.023 -0.004 0.035s0.006 0.013 -0.019 0.009c-0.032 -0.007 -0.032 -0.006 -0.007 0.009 0.016 0.012 0.05 0.015 0.083 0.009 0.035 -0.006 0.057 -0.003 0.057 0.006 0 0.007 -0.013 0.016 -0.029 0.016 -0.016 0.001 -0.035 0.004 -0.044 0.006 -0.007 0.001 -0.029 0.004 -0.047 0.006l-0.034 0.003 0.032 0.026c0.031 0.026 0.026 0.026 -0.19 0.035 -0.123 0.006 -0.286 0.019 -0.362 0.032 -0.319 0.053 -0.683 0.173 -0.844 0.28 -0.183 0.122 -0.256 0.346 -0.182 0.558 0.016 0.047 0.029 0.11 0.029 0.144 0 0.032 0.016 0.092 0.035 0.133 0.081 0.174 0.303 0.255 0.5 0.183 0.28 -0.104 0.357 -0.13 0.403 -0.138 0.04 -0.007 0.045 -0.006 0.026 0.006 -0.015 0.007 -0.026 0.022 -0.026 0.029 0 0.009 0.006 0.01 0.015 0.006 0.007 -0.004 0.026 -0.001 0.04 0.006 0.015 0.009 0.018 0.016 0.009 0.016 -0.01 0 -0.019 0.007 -0.019 0.015 0 0.009 0.016 0.012 0.037 0.009 0.021 -0.004 0.034 -0.001 0.029 0.007 -0.006 0.007 0.003 0.013 0.016 0.013 0.015 0 0.022 0.004 0.018 0.009 -0.006 0.004 -0.1 0.007 -0.212 0.007 -0.111 -0.001 -0.212 0.006 -0.224 0.013 -0.019 0.012 -0.019 0.015 0.004 0.016 0.044 0.004 0.051 0.006 0.063 0.016 0.01 0.012 0.003 0.013 -0.086 0.019 -0.04 0.003 -0.073 0.031 -0.062 0.051 0.003 0.004 0.038 0.007 0.079 0.006 0.042 -0.001 0.079 0.003 0.082 0.01 0.012 0.016 -0.047 0.031 -0.081 0.021 -0.019 -0.006 -0.029 -0.003 -0.029 0.01 0 0.035 0.022 0.048 0.081 0.051 0.032 0.001 0.073 0.003 0.091 0.003 0.025 0.001 0.029 0.007 0.022 0.034 -0.004 0.018 -0.01 0.025 -0.013 0.016 -0.01 -0.029 -0.047 -0.004 -0.041 0.028 0.004 0.023 0 0.028 -0.023 0.022 -0.018 -0.004 -0.026 -0.004 -0.022 0s-0.045 0.034 -0.113 0.063c-0.066 0.029 -0.163 0.081 -0.215 0.113s-0.104 0.056 -0.116 0.051 -0.016 0 -0.01 0.009c0.004 0.009 0.001 0.021 -0.007 0.026 -0.012 0.006 -0.013 0.004 -0.007 -0.006s0 -0.018 -0.016 -0.019c-0.025 0 -0.025 -0.001 0 -0.012 0.037 -0.013 0.034 -0.037 -0.007 -0.047 -0.031 -0.009 -0.031 -0.01 0.013 -0.021 0.026 -0.006 0.044 -0.016 0.041 -0.022 -0.004 -0.007 0.001 -0.016 0.01 -0.021 0.01 -0.004 0.003 -0.007 -0.018 -0.006 -0.021 0.003 -0.045 -0.001 -0.054 -0.007 -0.01 -0.007 -0.019 -0.007 -0.019 0 0 0.006 -0.015 0.013 -0.032 0.013 -0.019 0.001 -0.047 0.006 -0.063 0.01s-0.035 0.009 -0.042 0.009c-0.031 0.003 0.007 0.019 0.059 0.025 0.073 0.009 0.083 0.021 0.018 0.021 -0.034 0 -0.051 0.007 -0.051 0.021 0 0.019 0.054 0.019 0.085 0 0.006 -0.003 0.015 0 0.019 0.006 0.004 0.007 -0.016 0.021 -0.045 0.029 -0.041 0.013 -0.059 0.012 -0.076 -0.001s-0.019 -0.013 -0.01 0c0.007 0.015 -0.004 0.019 -0.042 0.019 -0.035 0 -0.05 0.006 -0.042 0.016 0.006 0.012 0 0.013 -0.022 0.006 -0.04 -0.012 -0.097 0.006 -0.079 0.023 0.022 0.022 0.078 0.028 0.078 0.009 0 -0.012 0.004 -0.012 0.013 0.001 0.006 0.012 0.016 0.019 0.022 0.019 0.004 0 0.029 0.003 0.054 0.009l0.045 0.009 -0.041 0.018c-0.023 0.01 -0.047 0.015 -0.053 0.012 -0.007 -0.003 -0.012 0.001 -0.012 0.01 0 0.026 0.045 0.035 0.079 0.015 0.029 -0.018 0.029 -0.016 -0.001 0.016 -0.035 0.035 -0.06 0.041 -0.198 0.045 -0.095 0.003 -0.104 0.021 -0.009 0.019 0.11 0 0.114 0.025 0.018 0.129 -0.047 0.05 -0.091 0.089 -0.098 0.086 -0.007 -0.001 -0.009 0.003 -0.004 0.01s-0.006 0.032 -0.023 0.054c-0.048 0.064 -0.059 0.075 -0.048 0.045 0.006 -0.015 0.003 -0.025 -0.007 -0.025 -0.009 0 -0.013 -0.006 -0.007 -0.015 0.004 -0.007 0.019 -0.01 0.034 -0.006 0.022 0.007 0.022 0.006 -0.001 -0.009 -0.013 -0.009 -0.021 -0.023 -0.016 -0.032 0.006 -0.01 0.003 -0.012 -0.006 -0.006 -0.01 0.006 -0.018 0.004 -0.018 -0.003s-0.025 -0.013 -0.054 -0.013c-0.031 -0.001 -0.105 -0.003 -0.166 -0.004 -0.167 -0.003 -0.179 -0.003 -0.167 0.018 0.009 0.015 0.006 0.015 -0.01 0.003 -0.012 -0.01 -0.051 -0.018 -0.089 -0.018 -0.059 -0.001 -0.07 0.003 -0.07 0.025 0 0.026 0.004 0.026 0.064 0.009 0.054 -0.016 0.064 -0.016 0.059 -0.001s0.003 0.018 0.032 0.012c0.026 -0.004 0.037 -0.001 0.029 0.009 -0.006 0.01 0.004 0.012 0.038 0.003 0.054 -0.016 0.057 -0.015 0.047 0.022 -0.006 0.026 -0.021 0.029 -0.113 0.028 -0.059 0 -0.122 0.004 -0.142 0.009 -0.021 0.006 -0.048 0.003 -0.064 -0.006 -0.021 -0.012 -0.029 -0.012 -0.034 0.003 -0.006 0.015 -0.012 0.015 -0.031 0 -0.019 -0.016 -0.021 -0.016 -0.01 0.003s0.009 0.019 -0.01 0.003c-0.021 -0.016 -0.026 -0.015 -0.04 0.007 -0.015 0.025 -0.018 0.025 -0.037 0 -0.01 -0.013 -0.025 -0.025 -0.031 -0.025s-0.003 0.01 0.007 0.022c0.012 0.015 0.013 0.022 0.003 0.022 -0.009 0 -0.022 -0.01 -0.029 -0.023 -0.01 -0.019 -0.022 -0.021 -0.064 -0.009 -0.038 0.01 -0.059 0.01 -0.072 -0.003 -0.013 -0.012 -0.015 -0.012 -0.007 0.001 0.006 0.01 0.003 0.019 -0.006 0.019 -0.01 0 -0.015 0.01 -0.009 0.022 0.004 0.012 0.001 0.022 -0.006 0.022 -0.009 0 -0.015 -0.01 -0.015 -0.023 0 -0.012 -0.006 -0.019 -0.013 -0.015 -0.007 0.006 -0.016 0 -0.021 -0.009 -0.003 -0.01 -0.01 -0.015 -0.016 -0.01 -0.006 0.006 0 0.021 0.013 0.032 0.032 0.032 0.028 0.044 -0.015 0.037 -0.021 -0.004 -0.037 -0.001 -0.037 0.007s0.026 0.01 0.067 0.004c0.038 -0.004 0.103 -0.009 0.144 -0.01 0.056 0 0.067 -0.004 0.045 -0.013 -0.028 -0.012 -0.028 -0.013 0.004 -0.013 0.018 -0.001 0.032 0.004 0.032 0.013 0 0.007 0.007 0.015 0.016 0.015 0.007 0 0.01 -0.007 0.006 -0.015 -0.004 -0.009 -0.003 -0.015 0.006 -0.015 0.007 0 0.019 0.006 0.023 0.015 0.004 0.007 0.031 0.015 0.056 0.016 0.026 0 0.037 0.004 0.025 0.009 -0.012 0.003 -0.032 0.01 -0.044 0.015 -0.012 0.006 -0.028 0.007 -0.037 0.006 -0.059 -0.016 -0.086 -0.015 -0.097 0.001 -0.01 0.015 -0.013 0.015 -0.013 0 0 -0.019 -0.119 -0.026 -0.138 -0.007 -0.006 0.007 -0.053 0.012 -0.103 0.012 -0.081 0 -0.091 -0.003 -0.085 -0.026 0.003 -0.013 0.021 -0.025 0.038 -0.025 0.025 0 0.026 0.003 0.009 0.015 -0.019 0.012 -0.018 0.015 0.004 0.015 0.013 0 0.025 -0.009 0.025 -0.021s0.01 -0.023 0.022 -0.026c0.013 -0.003 0.018 -0.012 0.009 -0.025 -0.013 -0.021 -0.105 -0.026 -0.136 -0.007 -0.01 0.007 -0.032 0.015 -0.048 0.016 -0.023 0.004 -0.025 0.001 -0.007 -0.01 0.016 -0.01 0.01 -0.015 -0.025 -0.015 -0.026 0 -0.048 0.003 -0.048 0.006 0 0.022 0.053 0.053 0.089 0.053 0.023 0 0.042 0.006 0.042 0.013s-0.013 0.01 -0.029 0.006c-0.018 -0.004 -0.029 0 -0.029 0.01 0 0.009 -0.007 0.015 -0.016 0.012s-0.015 -0.01 -0.015 -0.016c0 -0.004 -0.016 -0.028 -0.037 -0.05 -0.028 -0.029 -0.04 -0.035 -0.053 -0.022 -0.01 0.01 -0.025 0.018 -0.032 0.018 -0.009 0 -0.006 -0.007 0.006 -0.015 0.019 -0.012 0.019 -0.015 -0.003 -0.015 -0.013 0 -0.028 0.009 -0.031 0.018 -0.006 0.015 -0.012 0.015 -0.021 0.003 -0.013 -0.021 -0.268 -0.025 -0.268 -0.006 0 0.007 0.021 0.012 0.044 0.012 0.025 -0.001 0.048 0.003 0.054 0.007 0.004 0.006 -0.001 0.01 -0.015 0.01s-0.025 0.007 -0.025 0.016c0 0.007 0.006 0.012 0.012 0.007 0.006 -0.003 0.012 0.006 0.012 0.021 0 0.028 -0.001 0.028 -0.032 -0.001 -0.023 -0.022 -0.035 -0.025 -0.042 -0.012 -0.009 0.013 -0.018 0.01 -0.034 -0.01 -0.015 -0.021 -0.023 -0.022 -0.028 -0.009 -0.006 0.015 -0.012 0.015 -0.028 0.001 -0.01 -0.009 -0.035 -0.013 -0.053 -0.009 -0.019 0.006 -0.044 0.003 -0.056 -0.004 -0.018 -0.01 -0.016 -0.013 0.007 -0.013 0.075 0 0.111 -0.006 0.119 -0.018s-0.22 -0.022 -0.33 -0.015c-0.085 0.007 -0.18 -0.013 -0.171 -0.035 0.003 -0.01 -0.003 -0.031 -0.013 -0.047 -0.016 -0.022 -0.023 -0.023 -0.04 -0.007s-0.015 0.018 0.01 0.01c0.023 -0.007 0.025 -0.007 0.007 0.004 -0.012 0.009 -0.028 0.01 -0.037 0.003 -0.007 -0.006 -0.092 -0.015 -0.187 -0.019 -0.095 -0.003 -0.176 -0.01 -0.18 -0.015 -0.006 -0.004 0.019 -0.009 0.051 -0.007 0.069 0 0.088 -0.01 0.063 -0.035 -0.012 -0.012 -0.018 -0.012 -0.018 -0.001s-0.034 0.015 -0.089 0.013c-0.048 -0.001 -0.091 0.001 -0.095 0.009 -0.004 0.006 0.003 0.012 0.015 0.012 0.025 0 0.025 0.048 0.001 0.069 -0.006 0.007 -0.007 0.003 -0.001 -0.007q0.011 -0.018 -0.026 -0.018c-0.044 0 -0.05 0.021 -0.012 0.042 0.013 0.009 0.018 0.016 0.009 0.016s-0.048 -0.041 -0.088 -0.092c-0.038 -0.05 -0.114 -0.138 -0.167 -0.193 -0.051 -0.057 -0.073 -0.083 -0.047 -0.06 0.05 0.047 0.098 0.062 0.113 0.038 0.006 -0.009 -0.012 -0.019 -0.035 -0.023 -0.037 -0.007 -0.042 -0.013 -0.029 -0.029 0.009 -0.012 0.022 -0.018 0.028 -0.013 0.006 0.003 0.01 -0.007 0.009 -0.025 -0.001 -0.019 -0.018 -0.041 -0.038 -0.051s-0.031 -0.019 -0.023 -0.019 0.004 -0.009 -0.004 -0.019c-0.009 -0.012 -0.012 -0.025 -0.006 -0.029 0.009 -0.009 -0.016 -0.016 -0.042 -0.012 -0.007 0 -0.012 -0.004 -0.012 -0.013 0 -0.007 -0.007 -0.015 -0.016 -0.015 -0.007 0 -0.01 0.006 -0.006 0.015 0.006 0.009 -0.007 0.015 -0.032 0.013 -0.028 -0.001 -0.032 -0.004 -0.015 -0.009 0.023 -0.006 0.022 -0.01 -0.012 -0.028 -0.05 -0.026 -0.158 -0.023 -0.148 0.003 0.004 0.01 -0.037 -0.007 -0.091 -0.041S12.759 13.096 12.697 13.066c-0.086 -0.042 -0.107 -0.059 -0.088 -0.066 0.018 -0.007 0.019 -0.013 0.006 -0.018 -0.026 -0.01 -0.006 -0.034 0.031 -0.035 0.018 0 0.023 -0.004 0.015 -0.009 -0.01 -0.003 -0.019 -0.018 -0.019 -0.031 0 -0.018 -0.004 -0.019 -0.018 -0.006 -0.01 0.01 -0.025 0.018 -0.034 0.018 -0.007 0 -0.004 -0.007 0.007 -0.015 0.018 -0.01 0.018 -0.015 0.001 -0.015 -0.012 0 -0.016 -0.009 -0.01 -0.023s0.003 -0.019 -0.01 -0.012c-0.013 0.009 -0.013 0.007 0 -0.012 0.023 -0.026 0.007 -0.047 -0.021 -0.025 -0.015 0.013 -0.019 0.012 -0.019 -0.006 0 -0.025 -0.047 -0.025 -0.054 0 -0.003 0.009 -0.019 0.013 -0.034 0.009 -0.016 -0.004 -0.025 -0.013 -0.021 -0.022 0.004 -0.007 -0.009 -0.009 -0.031 -0.003 -0.026 0.006 -0.044 0.003 -0.054 -0.01 -0.012 -0.016 -0.013 -0.015 -0.006 0.004 0.004 0.015 -0.003 0.032 -0.018 0.04 -0.021 0.012 -0.021 0.015 -0.003 0.016 0.019 0 0.019 0.003 0.001 0.013 -0.012 0.007 -0.034 0.012 -0.048 0.009 -0.016 -0.003 -0.026 0.003 -0.026 0.016 0 0.012 0.012 0.021 0.025 0.021s0.021 0.003 0.016 0.007c-0.012 0.012 -0.246 -0.026 -0.246 -0.041 0 -0.007 0.01 -0.01 0.022 -0.004 0.012 0.004 0.021 0 0.018 -0.01 -0.001 -0.01 0.006 -0.016 0.015 -0.015 0.01 0.003 0.04 -0.009 0.066 -0.026l0.048 -0.029 -0.048 0.009 -0.05 0.01 0.034 -0.038c0.028 -0.032 0.069 -0.041 0.05 -0.009 -0.004 0.006 0.006 0.009 0.022 0.004 0.07 -0.019 0.028 -0.045 -0.054 -0.035 -0.01 0.001 -0.019 -0.007 -0.019 -0.021s0.006 -0.021 0.013 -0.015c0.009 0.004 0.037 -0.001 0.063 -0.013s0.038 -0.022 0.026 -0.022c-0.019 -0.001 -0.019 -0.003 0 -0.016 0.018 -0.012 0.015 -0.015 -0.015 -0.015 -0.035 -0.001 -0.035 -0.001 -0.007 -0.018 0.037 -0.021 0.051 -0.042 0.042 -0.059 -0.016 -0.025 0.186 0.032 0.387 0.107 0.168 0.064 0.249 0.072 0.362 0.032 0.144 -0.048 0.256 -0.209 0.256 -0.365 0 -0.025 0.01 -0.075 0.022 -0.108 0.028 -0.079 0.028 -0.227 0 -0.306 -0.053 -0.152 -0.157 -0.246 -0.365 -0.334 -0.306 -0.129 -0.656 -0.204 -1.037 -0.22 -0.127 -0.004 -0.229 -0.012 -0.226 -0.016 0.013 -0.013 -0.035 -0.048 -0.051 -0.038 -0.01 0.006 -0.013 0.004 -0.009 -0.006 0.006 -0.007 0.035 -0.013 0.066 -0.01 0.029 0.001 0.04 0 0.021 -0.003 -0.018 -0.003 -0.029 -0.012 -0.025 -0.019s-0.006 -0.01 -0.022 -0.007c-0.032 0.006 -0.041 -0.015 -0.01 -0.026 0.01 -0.004 0.006 -0.009 -0.009 -0.009 -0.015 -0.001 -0.023 -0.007 -0.019 -0.015s-0.013 -0.012 -0.04 -0.01c-0.025 0 -0.047 -0.006 -0.047 -0.013 0 -0.009 0.021 -0.015 0.047 -0.015 0.025 0 0.051 -0.006 0.059 -0.013s0.001 -0.01 -0.012 -0.006c-0.025 0.01 -0.04 0.003 -0.067 -0.034 -0.021 -0.026 -0.023 -0.025 0.086 -0.031 0.076 -0.006 0.104 -0.019 0.045 -0.023 -0.022 -0.001 -0.042 -0.007 -0.047 -0.012s0.016 -0.006 0.047 -0.001c0.032 0.004 0.054 0.001 0.054 -0.009 0 -0.009 0.004 -0.01 0.009 -0.006 0.006 0.004 0.022 0.003 0.037 -0.004 0.018 -0.01 0.028 -0.009 0.031 0.003 0.004 0.01 0.01 0.009 0.016 -0.007 0.007 -0.019 0.001 -0.025 -0.031 -0.026 -0.048 0 -0.303 -0.013 -0.356 -0.018 -0.021 -0.001 -0.047 -0.01 -0.059 -0.019 -0.012 -0.01 -0.034 -0.021 -0.05 -0.025s0.001 -0.006 0.04 -0.004c0.041 0.001 0.064 -0.003 0.06 -0.01 -0.006 -0.009 0.007 -0.012 0.031 -0.007 0.021 0.004 0.042 0.001 0.047 -0.004 0.009 -0.015 -0.015 -0.018 -0.097 -0.015 -0.04 0.001 -0.045 -0.001 -0.029 -0.012 0.012 -0.009 0.035 -0.012 0.051 -0.009 0.016 0.004 0.022 0.003 0.012 -0.001s-0.013 -0.018 -0.009 -0.029c0.006 -0.015 0 -0.018 -0.016 -0.012 -0.013 0.006 -0.023 0.001 -0.023 -0.009 0 -0.012 0.013 -0.015 0.041 -0.009 0.025 0.006 0.032 0.004 0.019 -0.003 -0.012 -0.009 -0.013 -0.018 -0.004 -0.023s0.022 0.001 0.029 0.015c0.01 0.019 0.019 0.021 0.045 0.007 0.023 -0.013 0.031 -0.013 0.031 0.003 0 0.012 -0.018 0.019 -0.047 0.018 -0.056 0 -0.069 0.041 -0.015 0.048 0.018 0.003 0.032 0.012 0.032 0.019s0.013 0.013 0.029 0.013c0.019 0 0.026 -0.007 0.021 -0.022 -0.006 -0.012 -0.003 -0.022 0.006 -0.022s0.018 0.007 0.021 0.018c0.004 0.012 0.012 0.01 0.026 -0.006 0.012 -0.012 0.035 -0.019 0.053 -0.015 0.019 0.003 0.048 -0.006 0.067 -0.019 0.028 -0.022 0.029 -0.023 0.004 -0.015 -0.045 0.016 -0.072 0.019 -0.088 0.01 -0.007 -0.006 -0.034 -0.007 -0.057 -0.004 -0.025 0.003 -0.038 -0.001 -0.032 -0.01 0.012 -0.021 -0.018 -0.038 -0.064 -0.038 -0.021 -0.001 -0.035 -0.009 -0.032 -0.021 0.001 -0.009 -0.003 -0.018 -0.012 -0.018 -0.007 0 -0.015 0.007 -0.015 0.016 0 0.012 -0.007 0.01 -0.023 -0.003 -0.018 -0.015 -0.025 -0.015 -0.034 -0.001 -0.007 0.013 -0.016 0.007 -0.028 -0.018 -0.009 -0.021 -0.012 -0.04 -0.006 -0.042 0.016 -0.01 0.168 -0.031 0.205 -0.029 0.018 0.001 0.029 -0.003 0.025 -0.009 -0.01 -0.019 -0.081 -0.029 -0.081 -0.012 0 0.007 -0.01 0.006 -0.022 -0.004 -0.019 -0.015 -0.019 -0.023 0 -0.059 0.012 -0.022 0.016 -0.045 0.01 -0.051 -0.006 -0.007 0.001 -0.007 0.016 -0.003 0.013 0.006 0.025 0.003 0.025 -0.004s-0.015 -0.016 -0.032 -0.019c-0.025 -0.004 -0.021 -0.007 0.015 -0.009 0.032 -0.001 0.047 0.004 0.047 0.021 0 0.015 0.015 0.022 0.045 0.022 0.026 0 0.041 -0.006 0.035 -0.015s-0.016 -0.012 -0.023 -0.007c-0.007 0.006 -0.013 0.003 -0.013 -0.006 0 -0.007 0.007 -0.016 0.015 -0.019 0.009 -0.003 0.019 -0.023 0.023 -0.045 0.006 -0.035 0.003 -0.04 -0.018 -0.028 -0.015 0.007 -0.042 0.009 -0.063 0.004 -0.021 -0.006 -0.097 -0.009 -0.168 -0.007 -0.073 0.003 -0.142 -0.001 -0.154 -0.007 -0.013 -0.009 0.001 -0.013 0.041 -0.013 0.035 -0.001 0.083 -0.006 0.107 -0.012 0.038 -0.007 0.042 -0.012 0.022 -0.023 -0.015 -0.007 -0.032 -0.009 -0.04 -0.004 -0.009 0.004 -0.015 0.001 -0.015 -0.006 0 -0.009 0.009 -0.016 0.021 -0.016s0.023 -0.007 0.026 -0.018c0.004 -0.01 0.047 -0.019 0.105 -0.021 0.136 -0.007 0.141 -0.021 0.007 -0.023 -0.103 -0.003 -0.104 -0.003 -0.023 -0.007 0.045 -0.003 0.083 -0.013 0.083 -0.021 0 -0.009 -0.026 -0.013 -0.066 -0.009 -0.035 0.003 -0.073 0 -0.083 -0.007 -0.019 -0.012 0.012 -0.018 0.066 -0.013 0.016 0.003 0.025 -0.007 0.025 -0.026 0 -0.037 -0.026 -0.04 -0.051 -0.006 -0.018 0.025 -0.051 0.016 -0.051 -0.015 0 -0.013 0.004 -0.012 0.012 0.001 0.009 0.013 0.018 0.009 0.031 -0.016 0.013 -0.026 0.028 -0.034 0.054 -0.028 0.019 0.003 0.047 -0.003 0.06 -0.013 0.018 -0.015 0.021 -0.015 0.013 -0.003 -0.013 0.023 0.062 0.026 0.094 0.003 0.016 -0.012 0.012 -0.013 -0.019 -0.006 -0.028 0.006 -0.038 0.003 -0.032 -0.007 0.006 -0.009 0.001 -0.013 -0.009 -0.012 -0.009 0.003 -0.021 -0.004 -0.023 -0.015 -0.004 -0.009 0.003 -0.018 0.016 -0.018s0.023 -0.007 0.023 -0.016c0 -0.007 -0.007 -0.01 -0.018 -0.004 -0.01 0.007 -0.012 0.004 -0.003 -0.01 0.016 -0.028 0.021 -0.059 0.006 -0.05 -0.006 0.004 -0.016 -0.003 -0.021 -0.016 -0.007 -0.018 -0.003 -0.022 0.015 -0.015 0.018 0.006 0.022 0.003 0.015 -0.013 -0.004 -0.012 0 -0.021 0.009 -0.018 0.009 0.001 0.019 -0.006 0.023 -0.018 0.004 -0.015 0 -0.016 -0.013 -0.007 -0.016 0.009 -0.016 0.006 0.001 -0.015 0.021 -0.026 0.019 -0.026 -0.029 -0.016 -0.123 0.025 -0.385 0.119 -0.526 0.186 -0.595 0.284 -0.995 0.68 -1.292 1.273 -0.161 0.321 -0.245 0.647 -0.277 1.068 -0.009 0.111 -0.015 0.744 -0.015 1.45 0 1.126 -0.003 1.248 -0.022 1.22 -0.015 -0.021 -0.032 -0.029 -0.048 -0.023 -0.019 0.006 -0.019 0.003 0.004 -0.015 0.026 -0.022 0.026 -0.023 0.004 -0.025 -0.015 0 -0.026 -0.007 -0.026 -0.015 0 -0.013 0.021 -0.021 0.048 -0.016 0.006 0 0.01 -0.01 0.01 -0.023 0 -0.019 -0.004 -0.021 -0.016 -0.009 -0.009 0.009 -0.025 0.013 -0.037 0.009 -0.013 -0.004 -0.021 0.012 -0.025 0.057 -0.003 0.034 -0.006 -0.546 -0.007 -1.292 -0.001 -0.822 0.003 -1.406 0.012 -1.487 0.062 -0.554 0.256 -1.05 0.579 -1.479 0.371 -0.491 0.955 -0.879 1.562 -1.033 0.119 -0.031 0.357 -0.072 0.391 -0.067 0.01 0 0.035 0.04 0.053 0.085m6.623 0.48c0.004 0.007 0.001 0.015 -0.006 0.015 -0.009 0 -0.016 -0.007 -0.016 -0.015 0 -0.009 0.003 -0.015 0.006 -0.015 0.004 0 0.012 0.006 0.016 0.015M11.396 10.312c0 0.007 -0.015 0.015 -0.032 0.013 -0.032 0 -0.032 -0.001 -0.004 -0.013 0.016 -0.007 0.031 -0.013 0.034 -0.013 0.001 -0.001 0.003 0.004 0.003 0.013m6.924 0.051c0 0.016 -0.006 0.018 -0.021 0.006 -0.01 -0.009 -0.019 -0.019 -0.019 -0.022s0.009 -0.006 0.019 -0.006c0.012 0 0.021 0.01 0.021 0.022m-7.113 0.047c0.019 0.023 0.018 0.025 -0.004 0.006 -0.025 -0.019 -0.032 -0.031 -0.021 -0.031 0.003 0 0.015 0.012 0.025 0.025m0.406 0.047c0.015 0.009 0.013 0.015 -0.01 0.021 -0.018 0.004 -0.028 0.001 -0.023 -0.004 0.004 -0.007 -0.004 -0.016 -0.018 -0.019 -0.022 -0.006 -0.022 -0.007 0.003 -0.009 0.016 0 0.038 0.004 0.048 0.012m-0.094 0.019c-0.004 0.006 -0.021 0.012 -0.035 0.012 -0.018 0 -0.026 0.01 -0.025 0.028 0 0.016 0.006 0.026 0.012 0.022 0.006 -0.003 0.015 0 0.021 0.009 0.004 0.007 0.003 0.015 -0.006 0.015 -0.007 0 -0.025 0.004 -0.04 0.01 -0.019 0.007 -0.022 0.004 -0.013 -0.01s0.003 -0.016 -0.023 -0.01c-0.029 0.007 -0.037 0.003 -0.037 -0.019 0 -0.016 0.006 -0.029 0.012 -0.029s0.012 0.006 0.012 0.015c0 0.007 0.007 0.015 0.018 0.015 0.009 0 0.013 -0.004 0.007 -0.009 -0.013 -0.013 0.051 -0.063 0.081 -0.06 0.013 0.001 0.021 0.007 0.018 0.013m-0.28 0.051c-0.01 0.003 -0.028 0.003 -0.037 0 -0.01 -0.004 -0.003 -0.007 0.018 -0.007s0.028 0.003 0.019 0.007m0.069 0.004c0 0.007 -0.007 0.015 -0.016 0.015 -0.007 0 -0.01 -0.007 -0.006 -0.015 0.004 -0.009 0.012 -0.015 0.016 -0.015 0.003 0 0.006 0.006 0.006 0.015m7.342 0.018c0.022 -0.001 0.041 0.001 0.041 0.007 0 0.007 -0.026 0.013 -0.059 0.015 -0.044 0.003 -0.059 -0.001 -0.059 -0.019 0 -0.013 0.007 -0.018 0.018 -0.012 0.01 0.007 0.037 0.01 0.059 0.009M11.375 10.605c-0.012 0.019 -0.004 0.019 0.047 0 0.037 -0.013 0.038 -0.013 0.015 0.006 -0.026 0.021 -0.026 0.021 0 0.028 0.015 0.004 0.001 0.006 -0.029 0.003 -0.031 -0.001 -0.064 -0.012 -0.073 -0.022 -0.013 -0.015 -0.013 -0.016 0 -0.009 0.009 0.004 0.021 0.003 0.026 -0.006 0.004 -0.007 0.012 -0.015 0.016 -0.015s0.003 0.006 -0.001 0.015m6.984 0.01c-0.01 0.003 -0.028 0.003 -0.037 0 -0.01 -0.004 -0.003 -0.007 0.018 -0.007s0.028 0.003 0.019 0.007M11.221 10.723c0 0.007 -0.006 0.015 -0.015 0.015 -0.007 0 -0.015 -0.007 -0.015 -0.015 0 -0.009 0.007 -0.015 0.015 -0.015 0.009 0 0.015 0.006 0.015 0.015m0.111 0.01c-0.004 0.01 0.003 0.028 0.015 0.041 0.013 0.012 0.016 0.022 0.007 0.022s-0.022 -0.013 -0.031 -0.029c-0.01 -0.021 -0.025 -0.028 -0.042 -0.022 -0.016 0.004 -0.026 0 -0.026 -0.013s0.016 -0.019 0.042 -0.018c0.026 0 0.04 0.007 0.035 0.019M11.294 10.796c-0.019 0.012 -0.088 0.001 -0.088 -0.013 0 -0.006 0.023 -0.007 0.053 -0.004 0.031 0.004 0.045 0.012 0.035 0.018m0.139 -0.015c0.004 0.007 0.001 0.015 -0.006 0.015 -0.009 0 -0.016 -0.007 -0.016 -0.015 0 -0.009 0.003 -0.015 0.006 -0.015 0.004 0 0.012 0.006 0.016 0.015m-0.059 0.044c-0.004 0.007 -0.016 0.015 -0.023 0.015 -0.009 0 -0.01 -0.007 -0.006 -0.015 0.004 -0.009 0.016 -0.015 0.023 -0.015 0.009 0 0.01 0.006 0.006 0.015m7.217 0.044c0.006 0.006 -0.012 0.009 -0.04 0.01s-0.051 -0.004 -0.051 -0.012c0 -0.006 0.009 -0.009 0.021 -0.004s0.025 0 0.031 -0.009 0.015 -0.012 0.021 -0.004c0.004 0.006 0.013 0.015 0.019 0.019m-0.135 0.249c0 0.007 -0.007 0.015 -0.016 0.015 -0.007 0 -0.01 -0.007 -0.006 -0.015 0.004 -0.009 0.012 -0.015 0.016 -0.015 0.003 0 0.006 0.006 0.006 0.015m-6.876 0.116c-0.006 0.007 0 0.016 0.009 0.021 0.01 0.003 0.015 0.012 0.009 0.018s-0.016 0.006 -0.025 0c-0.021 -0.012 -0.021 -0.051 0 -0.051 0.007 0 0.012 0.006 0.007 0.013m0.035 0.127c0 0.003 -0.021 0.006 -0.045 0.006 -0.023 0 -0.041 -0.006 -0.037 -0.013 0.007 -0.012 0.082 -0.004 0.082 0.007m6.79 0.189c0.234 0.018 0.721 0.136 0.64 0.157 -0.022 0.006 -0.029 0.003 -0.023 -0.007s-0.004 -0.003 -0.022 0.015c-0.032 0.034 -0.07 0.047 -0.053 0.019 0.004 -0.007 0 -0.01 -0.013 -0.006 -0.012 0.004 -0.082 -0.006 -0.158 -0.021 -0.239 -0.053 -0.407 -0.066 -0.69 -0.057 -0.264 0.007 -0.39 0.025 -0.631 0.085 -0.066 0.018 -0.12 0.023 -0.125 0.016s-0.028 -0.019 -0.053 -0.028c-0.041 -0.013 -0.035 -0.016 0.103 -0.06 0.189 -0.062 0.398 -0.104 0.59 -0.119 0.152 -0.012 0.192 -0.012 0.435 0.006m-6.075 0.034c0.243 0.053 0.353 0.091 0.35 0.122 -0.001 0.013 -0.007 0.022 -0.013 0.019 -0.007 -0.004 -0.007 -0.016 -0.001 -0.025 0.006 -0.01 -0.001 -0.007 -0.016 0.003 -0.025 0.021 -0.025 0.023 0.001 0.042 0.025 0.019 0.025 0.021 -0.003 0.012 -0.48 -0.138 -1.055 -0.148 -1.534 -0.025 -0.108 0.028 -0.152 0.035 -0.142 0.022 0.018 -0.022 0.007 -0.028 -0.053 -0.038 -0.062 -0.01 0.308 -0.111 0.549 -0.151 0.186 -0.031 0.681 -0.019 0.861 0.019m0.63 0.214c0.038 0.019 0.085 0.054 0.105 0.076 0.021 0.023 0.026 0.035 0.015 0.026s-0.037 -0.021 -0.056 -0.025c-0.029 -0.007 -0.031 -0.004 -0.016 0.013s0.006 0.016 -0.037 -0.003c-0.045 -0.022 -0.05 -0.028 -0.028 -0.037 0.025 -0.01 0.025 -0.012 0.001 -0.012 -0.015 -0.001 -0.026 -0.009 -0.026 -0.018 0 -0.007 0.007 -0.01 0.015 -0.006 0.009 0.004 0.015 0.006 0.015 0.001s-0.018 -0.018 -0.04 -0.029c-0.067 -0.037 -0.023 -0.026 0.051 0.012M12.905 11.836c0 0.007 -0.007 0.015 -0.016 0.015 -0.007 0 -0.01 -0.007 -0.006 -0.015 0.004 -0.009 0.012 -0.015 0.016 -0.015 0.003 0 0.006 0.006 0.006 0.015m-3.933 0.461c0.054 0.028 0.105 0.067 0.135 0.107 0.095 0.126 0.092 0.064 0.089 1.627 -0.001 0.778 -0.006 1.375 -0.012 1.327s-0.012 -0.072 -0.015 -0.051c-0.001 0.021 -0.003 0.047 -0.001 0.059 0.003 0.018 0 0.019 -0.01 0.001 -0.009 -0.01 -0.021 -0.016 -0.029 -0.01 -0.007 0.004 -0.018 0 -0.021 -0.01 -0.004 -0.009 -0.009 -0.605 -0.01 -1.321 -0.001 -0.718 -0.006 -1.333 -0.012 -1.37 -0.016 -0.123 -0.081 -0.212 -0.183 -0.256 -0.044 -0.018 -0.125 -0.022 -0.429 -0.022H8.101v-0.126h0.393l0.393 0.001zm12.927 0.015v0.066h-0.374c-0.305 0 -0.385 0.004 -0.429 0.022 -0.069 0.029 -0.116 0.073 -0.152 0.145 -0.037 0.07 -0.035 0.059 -0.04 1.569 -0.003 0.645 -0.007 1.163 -0.012 1.153 -0.003 -0.009 -0.013 -0.015 -0.021 -0.009 -0.019 0.012 -0.016 -0.015 0.004 -0.035 0.013 -0.013 0.013 -0.018 0 -0.018 -0.01 0 -0.018 0.006 -0.018 0.015 0 0.007 -0.01 0.015 -0.022 0.015 -0.026 0 -0.028 0.018 -0.004 0.041 0.013 0.013 0.013 0.018 0.001 0.018 -0.01 0 -0.021 0.028 -0.023 0.062 -0.003 0.035 -0.004 -0.58 -0.004 -1.365l0.001 -1.428 0.035 -0.066c0.044 -0.085 0.111 -0.155 0.185 -0.195 0.054 -0.031 0.085 -0.032 0.461 -0.04 0.221 -0.004 0.404 -0.01 0.407 -0.012 0.001 -0.001 0.003 0.026 0.003 0.063m-10.055 0.193c-0.015 0.015 -0.287 0.015 -0.287 0 0 -0.006 0.067 -0.01 0.149 -0.01s0.144 0.004 0.138 0.01m6.294 0c-0.01 0.003 -0.028 0.003 -0.037 0 -0.01 -0.004 -0.003 -0.007 0.018 -0.007s0.028 0.003 0.019 0.007m0.117 0c-0.01 0.003 -0.028 0.003 -0.037 0 -0.01 -0.004 -0.003 -0.007 0.018 -0.007s0.028 0.003 0.019 0.007m0.113 -0.004c0 0.012 -0.075 0.019 -0.082 0.007 -0.004 -0.007 0.013 -0.013 0.037 -0.013 0.025 0 0.045 0.003 0.045 0.006m-6.145 0.081c-0.004 0.009 -0.016 0.016 -0.025 0.016s-0.009 -0.009 0.003 -0.022c0.021 -0.025 0.038 -0.019 0.022 0.006m5.635 0.034c-0.01 0.01 -0.018 0.012 -0.018 0.003 0 -0.021 0.018 -0.038 0.028 -0.028 0.003 0.004 -0.001 0.016 -0.01 0.025m0.034 0.104c0.041 -0.004 0.067 -0.001 0.062 0.006 -0.012 0.01 -0.047 0.013 -0.259 0.018 -0.048 0.001 -0.06 0.006 -0.044 0.016 0.015 0.01 0.016 0.015 0.003 0.015 -0.01 0 -0.022 -0.009 -0.026 -0.021s-0.018 -0.018 -0.028 -0.015c-0.01 0.004 -0.023 0.001 -0.029 -0.007 -0.006 -0.01 0.013 -0.016 0.057 -0.016 0.037 0 0.069 -0.006 0.075 -0.013 0.004 -0.009 0.029 -0.007 0.063 0.004 0.029 0.01 0.088 0.016 0.127 0.013m-0.357 0.009c-0.012 0.007 -0.029 0.01 -0.041 0.006 -0.031 -0.012 -0.022 -0.019 0.022 -0.019 0.029 0 0.034 0.004 0.019 0.013m0.369 0.064c0.028 0.001 0.048 0.006 0.044 0.01 -0.003 0.004 -0.009 0.004 -0.01 0 -0.003 -0.004 -0.015 0.001 -0.028 0.013 -0.015 0.01 -0.025 0.015 -0.025 0.007s-0.006 -0.004 -0.013 0.007c-0.012 0.019 -0.022 0.019 -0.07 0 -0.031 -0.013 -0.072 -0.022 -0.089 -0.021s-0.031 -0.004 -0.028 -0.013c0.006 -0.018 0.067 -0.013 0.092 0.007 0.009 0.007 0.023 0.001 0.035 -0.016s0.025 -0.022 0.029 -0.013c0.006 0.007 0.034 0.016 0.063 0.018m-5.842 -0.004c0.004 0.007 0.001 0.015 -0.006 0.015 -0.009 0 -0.016 -0.007 -0.016 -0.015 0 -0.009 0.003 -0.015 0.006 -0.015 0.004 0 0.012 0.006 0.016 0.015m5.603 0.029c0 0.007 -0.012 0.01 -0.025 0.007 -0.015 -0.003 -0.035 -0.006 -0.045 -0.006 -0.01 -0.001 -0.016 -0.007 -0.012 -0.015 0.01 -0.015 0.082 -0.003 0.082 0.013m-5.112 0.051c0 0.013 -0.009 0.018 -0.023 0.012 -0.019 -0.007 -0.019 -0.01 -0.003 -0.021 0.025 -0.016 0.026 -0.016 0.026 0.009m-3.829 0.021c0.057 0.035 0.094 0.111 0.094 0.195l-0.001 0.063 -0.019 -0.056c-0.034 -0.091 -0.079 -0.129 -0.186 -0.148 -0.053 -0.009 -0.11 -0.054 -0.091 -0.072 0.021 -0.022 0.16 -0.01 0.204 0.018m3.27 -0.018c-0.022 0.003 -0.062 0.003 -0.088 0s-0.009 -0.006 0.04 -0.006 0.07 0.003 0.048 0.006m5.874 0.007c-0.004 0.01 -0.06 0.029 -0.126 0.042 -0.117 0.023 -0.12 0.023 -0.12 -0.004 0 -0.025 0.007 -0.028 0.064 -0.021 0.041 0.006 0.069 0.003 0.075 -0.007 0.006 -0.009 0.026 -0.012 0.045 -0.007 0.021 0.006 0.035 0.003 0.035 -0.006 0 -0.007 0.007 -0.015 0.016 -0.015s0.013 0.009 0.01 0.018m0.069 -0.003c0.026 0.012 0.025 0.013 -0.01 0.013 -0.023 0.001 -0.041 -0.006 -0.041 -0.013 0 -0.018 0.012 -0.018 0.051 0m3.538 -0.003c0 0.025 -0.051 0.059 -0.111 0.075 -0.076 0.021 -0.135 0.066 -0.161 0.125l-0.019 0.045 -0.001 -0.048c0 -0.069 0.041 -0.148 0.094 -0.18 0.047 -0.028 0.199 -0.04 0.199 -0.016m-3.867 0.04c0 0.012 -0.006 0.022 -0.012 0.022 -0.007 0 -0.013 -0.01 -0.013 -0.022s0.006 -0.022 0.013 -0.022c0.006 0 0.012 0.01 0.012 0.022m-9.908 0.721c-0.006 0.289 -0.013 0.527 -0.018 0.53 -0.003 0.003 -0.006 -0.007 -0.006 -0.025 0 -0.029 -0.007 -0.031 -0.086 -0.019 -0.004 0.001 0.004 0.01 0.018 0.019 0.021 0.016 0.007 0.019 -0.085 0.021 -0.062 0.001 -0.114 0.006 -0.12 0.01 -0.004 0.004 -0.01 0.066 -0.015 0.138 -0.009 0.201 -0.015 0.224 -0.053 0.224 -0.019 0 -0.041 0.007 -0.048 0.015 -0.032 0.032 -0.048 -0.788 -0.019 -0.946 0.022 -0.119 0.076 -0.226 0.16 -0.318 0.066 -0.073 0.215 -0.17 0.262 -0.171 0.018 0 0.019 0.079 0.01 0.523m14.748 -0.458c0.148 0.095 0.253 0.252 0.286 0.425 0.028 0.152 0.013 1.022 -0.016 0.97 -0.018 -0.032 -0.07 -0.031 -0.072 0.001 -0.004 0.05 -0.026 -0.107 -0.028 -0.193 -0.001 -0.078 -0.04 -0.214 -0.042 -0.152 -0.001 0.018 -0.016 0.022 -0.066 0.021 -0.034 -0.001 -0.07 -0.007 -0.079 -0.013 -0.009 -0.004 -0.038 -0.006 -0.066 -0.003l-0.05 0.006 -0.01 -0.177c-0.004 -0.097 -0.009 -0.35 -0.009 -0.564v-0.387l0.038 0.009c0.022 0.006 0.073 0.032 0.114 0.059m-10.299 -0.012c0.262 0.05 0.472 0.135 0.691 0.281 0.227 0.151 0.426 0.36 0.549 0.58 0.044 0.076 0.045 0.083 0.018 0.069 -0.026 -0.015 -0.032 -0.013 -0.032 0.006 0 0.013 -0.006 0.021 -0.013 0.016 -0.021 -0.013 -0.031 0.029 -0.012 0.05 0.013 0.015 0.013 0.016 0 0.009s-0.019 0 -0.019 0.019c0 0.018 -0.007 0.031 -0.016 0.031 -0.007 0 -0.01 0.006 -0.006 0.015 0.004 0.007 0.001 0.015 -0.009 0.015 -0.012 0 -0.012 0.006 0.001 0.022 0.01 0.012 0.013 0.022 0.007 0.022s-0.004 0.009 0.004 0.018c0.015 0.019 0.037 0.125 0.038 0.18 0.001 0.016 0.007 0.034 0.015 0.04 0.022 0.016 0.045 0.248 0.038 0.378l-0.007 0.125 -0.012 -0.13c-0.059 -0.608 -0.374 -1.075 -0.896 -1.33 -0.618 -0.3 -1.364 -0.16 -1.834 0.344 -0.199 0.214 -0.35 0.51 -0.4 0.79 -0.021 0.11 -0.041 0.422 -0.028 0.422 0.004 0 0.013 0.038 0.018 0.083 0.037 0.341 0.211 0.678 0.482 0.936 0.193 0.183 0.435 0.321 0.678 0.387 0.167 0.045 0.507 0.057 0.687 0.023 0.5 -0.095 0.918 -0.422 1.146 -0.895 0.066 -0.138 0.138 -0.397 0.138 -0.497 0 -0.101 0.021 -0.041 0.023 0.069s-0.028 0.274 -0.06 0.325c-0.01 0.018 -0.022 0.044 -0.028 0.059 -0.004 0.018 -0.006 0.013 -0.003 -0.012 0.006 -0.053 -0.006 -0.04 -0.037 0.041 -0.015 0.04 -0.019 0.069 -0.012 0.075 0.016 0.009 -0.044 0.123 -0.138 0.262 -0.133 0.196 -0.416 0.431 -0.656 0.541 -0.385 0.177 -0.876 0.182 -1.279 0.015 -0.23 -0.097 -0.479 -0.286 -0.631 -0.478 -0.097 -0.123 -0.231 -0.369 -0.284 -0.517 -0.041 -0.116 -0.073 -0.318 -0.067 -0.417 0.003 -0.044 0.009 -0.146 0.013 -0.227 0.006 -0.081 0.015 -0.17 0.021 -0.198 0.015 -0.059 0.013 -0.186 -0.001 -0.199 -0.006 -0.006 -0.006 -0.026 0 -0.047q0.009 -0.037 -0.009 -0.026c-0.009 0.006 -0.016 0.003 -0.016 -0.004 0 -0.009 0.007 -0.016 0.016 -0.016 0.012 0 0.013 -0.006 0 -0.019 -0.009 -0.012 -0.012 -0.023 -0.009 -0.028 0.004 -0.004 0 -0.025 -0.009 -0.045 -0.015 -0.031 -0.022 -0.035 -0.044 -0.023 -0.018 0.009 -0.028 0.009 -0.028 0 0 -0.007 -0.01 -0.016 -0.022 -0.019 -0.018 -0.003 -0.012 -0.026 0.032 -0.114 0.086 -0.168 0.182 -0.305 0.322 -0.454 0.319 -0.34 0.688 -0.517 1.206 -0.577 0.088 -0.01 0.349 0.006 0.473 0.029m6.379 -0.001c0.457 0.086 0.839 0.321 1.124 0.688 0.103 0.133 0.13 0.177 0.204 0.325 0.059 0.116 0.066 0.141 0.028 0.097 -0.015 -0.016 -0.035 -0.026 -0.045 -0.022 -0.01 0.003 -0.028 -0.006 -0.038 -0.021 -0.018 -0.022 -0.021 -0.016 -0.021 0.054 -0.001 0.044 -0.006 0.095 -0.012 0.116 -0.007 0.032 -0.016 0.107 -0.021 0.212 -0.001 0.016 -0.019 -0.023 -0.042 -0.088 -0.144 -0.419 -0.409 -0.729 -0.79 -0.929 -0.858 -0.445 -1.931 -0.001 -2.221 0.918 -0.042 0.135 -0.081 0.337 -0.083 0.441 -0.001 0.038 -0.007 0.007 -0.015 -0.072 -0.01 -0.113 -0.009 -0.286 0.003 -0.322 0 -0.004 0.001 -0.028 0.001 -0.051 0 -0.025 0.007 -0.048 0.018 -0.054 0.01 -0.007 0.01 -0.012 -0.004 -0.012 -0.016 0 -0.016 -0.004 -0.001 -0.022 0.009 -0.012 0.013 -0.028 0.007 -0.037 -0.004 -0.007 -0.001 -0.015 0.009 -0.015 0.012 0 0.015 -0.021 0.007 -0.075 -0.007 -0.05 -0.004 -0.082 0.007 -0.095 0.013 -0.016 0.013 -0.026 -0.003 -0.047 -0.06 -0.073 -0.059 -0.083 0.004 -0.182 0.199 -0.311 0.504 -0.564 0.847 -0.705 0.139 -0.057 0.321 -0.105 0.476 -0.126 0.133 -0.019 0.409 -0.009 0.561 0.021m-5.259 0.161c-0.004 0.004 -0.013 -0.003 -0.018 -0.018 -0.009 -0.021 -0.007 -0.022 0.007 -0.009 0.01 0.01 0.015 0.022 0.01 0.026m-0.098 0.032c0.019 0.023 0.018 0.025 -0.004 0.006 -0.025 -0.019 -0.032 -0.031 -0.021 -0.031 0.003 0 0.015 0.012 0.025 0.025M12.157 13.74c0.22 0.063 0.39 0.167 0.567 0.344 0.262 0.262 0.387 0.596 0.368 0.979 -0.016 0.335 -0.136 0.612 -0.365 0.844 -0.253 0.256 -0.519 0.378 -0.861 0.393 -0.39 0.018 -0.68 -0.091 -0.946 -0.354 -0.154 -0.151 -0.24 -0.275 -0.306 -0.432 -0.083 -0.195 -0.101 -0.293 -0.101 -0.52 0.001 -0.179 0.006 -0.221 0.04 -0.334 0.114 -0.376 0.349 -0.662 0.678 -0.828 0.214 -0.107 0.349 -0.135 0.621 -0.127 0.145 0.003 0.227 0.013 0.306 0.037m3.942 -0.029c0 0.007 -0.012 0.015 -0.025 0.015 -0.022 0 -0.023 -0.003 -0.004 -0.015 0.028 -0.018 0.029 -0.018 0.029 0m2.366 0.013c0.258 0.053 0.439 0.152 0.637 0.352 0.381 0.381 0.491 0.879 0.306 1.384 -0.062 0.167 -0.142 0.296 -0.28 0.441 -0.272 0.287 -0.592 0.416 -0.992 0.398 -0.217 -0.009 -0.313 -0.034 -0.492 -0.12 -0.337 -0.164 -0.604 -0.485 -0.697 -0.838 -0.044 -0.164 -0.053 -0.432 -0.021 -0.592 0.051 -0.258 0.158 -0.467 0.328 -0.647 0.186 -0.195 0.432 -0.335 0.675 -0.384 0.144 -0.029 0.381 -0.026 0.535 0.006m-2.285 0.045c-0.012 0.019 -0.051 0.019 -0.051 0 0 -0.009 0.01 -0.015 0.022 -0.015q0.02 0 0.013 -0.026c-0.007 -0.023 -0.007 -0.023 0.009 0.001 0.009 0.013 0.012 0.032 0.007 0.04m0.114 -0.021c0.031 -0.006 0.056 -0.003 0.062 0.006s-0.001 0.01 -0.016 0.004c-0.016 -0.006 -0.022 -0.003 -0.016 0.006 0.006 0.01 -0.006 0.015 -0.031 0.012 -0.057 -0.006 -0.092 -0.022 -0.082 -0.04 0.006 -0.009 0.013 -0.009 0.021 0.003 0.007 0.013 0.029 0.015 0.063 0.009m-2.249 0.004c0.078 0.001 0.05 0.038 -0.031 0.04 -0.037 0 -0.064 -0.004 -0.06 -0.012 0.004 -0.006 0 -0.012 -0.007 -0.012 -0.009 0 -0.016 -0.006 -0.016 -0.012 0 -0.007 0.015 -0.012 0.034 -0.009 0.018 0.001 0.054 0.004 0.081 0.004M14.194 13.828c0.019 0 0.025 0.007 0.019 0.029 -0.004 0.016 -0.013 0.025 -0.021 0.021s-0.01 -0.013 -0.006 -0.021c0.004 -0.006 -0.003 -0.015 -0.015 -0.021 -0.012 -0.004 -0.022 -0.016 -0.021 -0.026 0 -0.015 0.003 -0.015 0.009 -0.001 0.003 0.01 0.019 0.019 0.034 0.019m-0.205 -0.001c0.012 0.001 0.015 0.06 0.003 0.06 -0.006 0 -0.022 -0.016 -0.035 -0.035 -0.025 -0.034 -0.025 -0.035 0 -0.031 0.013 0.003 0.028 0.006 0.032 0.006m0.278 0.022c0 0.021 -0.006 0.041 -0.015 0.045 -0.007 0.004 -0.015 0.016 -0.015 0.023 0 0.009 0.007 0.01 0.015 0.006 0.009 -0.004 0.015 -0.003 0.015 0.004s0.01 0.013 0.022 0.013 0.022 -0.006 0.022 -0.013 0.006 -0.009 0.015 -0.004c0.007 0.004 0.038 0.003 0.066 -0.006 0.028 -0.007 0.048 -0.009 0.045 -0.003 -0.004 0.006 0.021 0.01 0.054 0.012 0.174 0.004 0.294 0.003 0.325 -0.004 0.018 -0.004 0.038 -0.001 0.042 0.006 0.004 0.009 0.029 0.01 0.06 0.003 0.028 -0.006 0.051 -0.006 0.051 0.001 0 0.006 0.009 0.009 0.021 0.004s0.025 -0.001 0.031 0.007c0.004 0.009 0 0.016 -0.01 0.018 -0.01 0 -0.006 0.006 0.01 0.013 0.023 0.009 0.018 0.012 -0.026 0.012 -0.029 -0.001 -0.059 0.003 -0.066 0.009 -0.006 0.007 0.006 0.009 0.025 0.006 0.021 -0.003 0.038 0.004 0.042 0.016 0.004 0.015 -0.003 0.016 -0.028 0.007 -0.019 -0.006 -0.042 -0.01 -0.053 -0.01s-0.015 -0.006 -0.01 -0.013c0.004 -0.006 0.004 -0.012 0 -0.012 -0.003 0 -0.018 -0.004 -0.032 -0.01 -0.016 -0.006 -0.022 -0.004 -0.016 0.006 0.015 0.025 -0.023 0.032 -0.045 0.009 -0.025 -0.023 -0.082 -0.026 -0.067 -0.003 0.01 0.016 0.003 0.016 -0.122 -0.007 -0.019 -0.004 -0.034 0 -0.034 0.007 0 0.009 -0.009 0.01 -0.018 0.003 -0.026 -0.016 -0.261 -0.016 -0.261 0 0 0.007 -0.01 0.001 -0.023 -0.012 -0.018 -0.018 -0.029 -0.019 -0.042 -0.007 -0.012 0.009 -0.041 0.013 -0.069 0.007 -0.026 -0.004 -0.064 -0.01 -0.085 -0.013 -0.021 -0.001 -0.038 -0.007 -0.04 -0.013 -0.012 -0.029 0 -0.035 0.044 -0.026 0.026 0.007 0.06 0.007 0.076 0.001s0.034 -0.009 0.041 -0.004c0.006 0.003 0.012 -0.003 0.013 -0.013 0 -0.01 0.003 -0.026 0.004 -0.034 0.003 -0.009 0.004 -0.026 0.006 -0.041 0.003 -0.04 0.031 -0.029 0.031 0.01m0.183 -0.022c0.012 0.021 -0.019 0.035 -0.048 0.023 -0.021 -0.007 -0.021 -0.01 -0.003 -0.022 0.028 -0.018 0.04 -0.018 0.051 -0.001m0.403 0.009c0 0.012 -0.006 0.022 -0.015 0.022 -0.007 0 -0.015 -0.01 -0.015 -0.022s0.007 -0.022 0.015 -0.022c0.009 0 0.015 0.01 0.015 0.022m0.425 -0.016c0 0.003 -0.01 0.009 -0.022 0.015 -0.012 0.004 -0.022 0.001 -0.022 -0.006 0 -0.009 0.01 -0.015 0.022 -0.015s0.022 0.003 0.022 0.006m0.246 0.013c0.012 0.015 0.007 0.019 -0.023 0.021 -0.022 0 -0.028 -0.001 -0.013 -0.006 0.013 -0.003 0.022 -0.013 0.018 -0.021 -0.013 -0.021 0.001 -0.016 0.019 0.006m0.362 0.023c-0.015 0.025 -0.066 0.028 -0.083 0.003 -0.015 -0.019 -0.015 -0.021 0.001 -0.007 0.022 0.021 0.079 0.009 0.064 -0.013q-0.007 -0.013 0.009 -0.004c0.009 0.006 0.013 0.016 0.009 0.022m0.229 0.007c-0.031 0.018 -0.032 0.022 -0.012 0.028 0.023 0.006 0.023 0.007 0.001 0.004 -0.035 -0.003 -0.042 -0.034 -0.01 -0.042 0.05 -0.013 0.056 -0.009 0.021 0.01m-1.764 0.003c-0.004 0.004 -0.018 0.006 -0.028 0.001 -0.012 -0.004 -0.007 -0.009 0.009 -0.009 0.016 -0.001 0.025 0.003 0.019 0.007m0.144 0.006c0.004 0.007 0.001 0.015 -0.006 0.015 -0.009 0 -0.016 -0.007 -0.016 -0.015 0 -0.009 0.003 -0.015 0.006 -0.015 0.004 0 0.012 0.006 0.016 0.015m0.456 0.007c0.013 0.012 0.016 0.022 0.009 0.022s-0.022 -0.01 -0.032 -0.022 -0.013 -0.022 -0.009 -0.022c0.006 0 0.021 0.01 0.032 0.022m1.017 -0.007c0 0.007 -0.006 0.015 -0.015 0.015 -0.007 0 -0.015 -0.007 -0.015 -0.015 0 -0.009 0.007 -0.015 0.015 -0.015 0.009 0 0.015 0.006 0.015 0.015m-0.835 0.075c0 0.016 -0.034 0.023 -0.063 0.016 -0.016 -0.004 -0.021 -0.012 -0.012 -0.016 0.021 -0.013 0.075 -0.013 0.075 0m-0.022 0.051c-0.022 0.012 -0.044 0.018 -0.048 0.013s0.001 -0.007 0.013 -0.007c0.016 0 0.016 -0.003 0.001 -0.013 -0.013 -0.007 -0.003 -0.012 0.028 -0.013l0.047 -0.001zm0.088 -0.009c0.004 0.007 0.001 0.015 -0.006 0.015 -0.009 0 -0.016 -0.007 -0.016 -0.015 0 -0.009 0.003 -0.015 0.006 -0.015 0.004 0 0.012 0.006 0.016 0.015m0.086 -0.003c0.003 0.006 -0.007 0.013 -0.025 0.013 -0.025 0.003 -0.028 0 -0.01 -0.01 0.026 -0.018 0.026 -0.018 0.035 -0.003m0.111 0.003c0 0.007 -0.022 0.015 -0.047 0.015 -0.037 0 -0.042 -0.004 -0.026 -0.015 0.029 -0.019 0.073 -0.019 0.073 0m0.059 0.001c0 0.007 0.006 0.01 0.015 0.006 0.007 -0.004 0.025 -0.003 0.04 0.004 0.019 0.012 0.009 0.015 -0.037 0.013 -0.04 -0.001 -0.062 -0.007 -0.062 -0.021 0 -0.01 0.01 -0.019 0.022 -0.019s0.022 0.007 0.022 0.016m0.144 0.001c-0.004 0.01 -0.018 0.021 -0.032 0.021 -0.022 0.003 -0.022 0.003 0 -0.004 0.021 -0.006 0.021 -0.01 0.004 -0.021s-0.015 -0.013 0.006 -0.013c0.016 0 0.025 0.009 0.022 0.018m0.275 0c0.006 0.01 0.006 0.015 -0.001 0.009 -0.006 -0.006 -0.023 -0.004 -0.038 0.004 -0.018 0.009 -0.028 0.009 -0.028 0 0 -0.007 0.012 -0.018 0.026 -0.021 0.013 -0.004 0.026 -0.007 0.028 -0.009 0.001 0 0.007 0.007 0.013 0.016m-0.097 0.012c0 0.007 -0.003 0.015 -0.006 0.015 -0.004 0 -0.012 -0.007 -0.016 -0.015 -0.004 -0.009 -0.001 -0.015 0.006 -0.015 0.009 0 0.016 0.006 0.016 0.015m-1.626 0.045c0 0.007 -0.006 0.013 -0.012 0.013 -0.007 0 -0.013 -0.01 -0.013 -0.022s0.006 -0.018 0.013 -0.013c0.006 0.004 0.012 0.013 0.012 0.022m1.396 0.009c-0.01 0.003 -0.028 0.003 -0.037 0 -0.01 -0.004 -0.003 -0.007 0.018 -0.007s0.028 0.003 0.019 0.007m-1.737 0.059c-0.016 0.015 -0.067 0.015 -0.073 -0.001 -0.004 -0.013 0.006 -0.016 0.037 -0.012 0.023 0.003 0.04 0.009 0.037 0.013m0.166 -0.01c0 0.007 -0.007 0.015 -0.016 0.015 -0.007 0 -0.01 -0.007 -0.006 -0.015 0.004 -0.009 0.012 -0.015 0.016 -0.015 0.003 0 0.006 0.006 0.006 0.015m0.476 0c0.004 0.009 -0.006 0.015 -0.025 0.015 -0.026 0 -0.029 -0.003 -0.012 -0.015 0.028 -0.018 0.026 -0.018 0.037 0m-0.066 0.015c0 0.007 -0.003 0.015 -0.006 0.015 -0.004 0 -0.012 -0.007 -0.016 -0.015 -0.004 -0.009 -0.001 -0.015 0.006 -0.015 0.009 0 0.016 0.006 0.016 0.015m0.157 -0.006c-0.004 0.004 -0.018 0.006 -0.028 0.001 -0.012 -0.004 -0.007 -0.009 0.009 -0.009 0.016 -0.001 0.025 0.003 0.019 0.007m0.059 0c-0.004 0.004 -0.018 0.006 -0.028 0.001 -0.012 -0.004 -0.007 -0.009 0.009 -0.009 0.016 -0.001 0.025 0.003 0.019 0.007m0.136 0.012c0 0.003 -0.01 0.01 -0.023 0.015 -0.012 0.004 -0.018 0.003 -0.013 -0.006 0.009 -0.015 0.037 -0.021 0.037 -0.009m0.083 0.018c-0.004 0.004 -0.018 0.006 -0.028 0.001 -0.012 -0.004 -0.007 -0.009 0.009 -0.009 0.016 -0.001 0.025 0.003 0.019 0.007m1.383 0.119c-0.018 0.029 -0.021 0.021 -0.007 -0.018 0.006 -0.013 0.013 -0.021 0.016 -0.016 0.004 0.003 0 0.019 -0.009 0.034M13.828 14.312c0.018 0.063 0 0.044 -0.023 -0.023 -0.01 -0.029 -0.012 -0.047 -0.004 -0.04s0.021 0.035 0.028 0.063m5.946 0.453c0.001 0.075 -0.007 0.05 -0.018 -0.042q-0.009 -0.079 0.004 -0.044c0.006 0.021 0.012 0.059 0.013 0.086m0.025 0.478c-0.019 0.296 -0.193 0.665 -0.439 0.926 -0.328 0.347 -0.768 0.523 -1.239 0.498 -0.343 -0.019 -0.623 -0.123 -0.91 -0.338 -0.226 -0.17 -0.404 -0.401 -0.523 -0.672 -0.059 -0.133 -0.11 -0.327 -0.092 -0.354 0.01 -0.018 0.01 -0.023 0.015 -0.11 0.004 -0.06 0.006 -0.057 0.025 0.051 0.107 0.608 0.508 1.083 1.068 1.264 0.195 0.064 0.327 0.081 0.56 0.072 0.4 -0.015 0.709 -0.142 0.99 -0.406 0.34 -0.319 0.498 -0.661 0.52 -1.121l0.009 -0.205 0.013 0.146c0.006 0.081 0.009 0.192 0.004 0.249m0.702 -0.286c0.004 0.007 0.001 0.015 -0.006 0.015 -0.009 0 -0.016 -0.007 -0.016 -0.015 0 -0.009 0.003 -0.015 0.006 -0.015 0.004 0 0.012 0.006 0.016 0.015m0.094 0.083c-0.001 0.069 -0.001 0.069 -0.015 0.022 -0.007 -0.025 -0.021 -0.047 -0.028 -0.047 -0.009 0 -0.015 -0.006 -0.015 -0.015 0 -0.007 0.01 -0.01 0.022 -0.006 0.012 0.006 0.022 0.001 0.022 -0.007s0.003 -0.016 0.007 -0.016 0.007 0.031 0.006 0.069m-0.105 -0.007c-0.004 0.012 -0.009 0.007 -0.009 -0.009 -0.001 -0.016 0.003 -0.025 0.007 -0.019 0.004 0.004 0.006 0.018 0.001 0.028m0.04 -0.009c0.004 0.012 0.003 0.018 -0.006 0.013s-0.015 -0.015 -0.015 -0.023c0 -0.021 0.01 -0.016 0.021 0.01m-3.921 0.038c-0.004 0.012 -0.009 0.007 -0.009 -0.009 -0.001 -0.016 0.003 -0.025 0.007 -0.019 0.004 0.004 0.006 0.018 0.001 0.028m-7.192 0.044c-0.004 0.012 -0.009 0.007 -0.009 -0.009 -0.001 -0.016 0.003 -0.025 0.007 -0.019 0.004 0.004 0.006 0.018 0.001 0.028m11.177 0.059c-0.004 0.01 -0.007 0.003 -0.007 -0.018s0.003 -0.028 0.007 -0.019c0.003 0.01 0.003 0.028 0 0.037M8.752 17.153c0.054 0.053 0.088 0.157 0.066 0.211 -0.01 0.026 -0.013 0.023 -0.013 -0.019 -0.001 -0.035 -0.015 -0.062 -0.051 -0.098 -0.028 -0.028 -0.059 -0.05 -0.069 -0.05 -0.013 0 -0.015 0.004 -0.004 0.012 0.019 0.013 0.038 0.062 0.023 0.06 -0.031 -0.004 -0.034 0.004 -0.01 0.034 0.016 0.019 -0.021 -0.015 -0.081 -0.073 -0.125 -0.12 -0.123 -0.141 0.012 -0.13 0.063 0.004 0.086 0.015 0.127 0.054m12.722 -0.044c0.018 0.012 0 0.035 -0.092 0.127l-0.114 0.114 0.038 -0.073c0.021 -0.04 0.045 -0.078 0.056 -0.085s0.003 -0.007 -0.019 -0.001c-0.105 0.029 -0.182 0.141 -0.13 0.192 0.012 0.012 0.012 0.019 0 0.026 -0.045 0.026 -0.038 -0.177 0.007 -0.229 0.067 -0.076 0.193 -0.111 0.255 -0.072m-13.021 0.171c0.026 0.031 0.037 0.044 0.019 0.029 -0.041 -0.034 -0.063 -0.031 -0.079 0.007 -0.012 0.032 -0.013 0.032 -0.013 -0.006 -0.001 -0.034 0.01 -0.085 0.019 -0.085 0.001 0 0.026 0.025 0.054 0.054m13.167 -0.006c0 0.026 -0.003 0.028 -0.015 0.01s-0.021 -0.016 -0.062 0.013l-0.048 0.035 0.05 -0.053c0.053 -0.056 0.075 -0.059 0.075 -0.006m-9.743 0.921c0 0.415 -0.006 0.724 -0.013 0.708 -0.006 -0.016 -0.009 -0.044 -0.004 -0.06 0.004 -0.021 -0.001 -0.035 -0.018 -0.041 -0.013 -0.004 -0.019 -0.016 -0.013 -0.025 0.006 -0.012 0.004 -0.013 -0.007 -0.007 -0.009 0.006 -0.013 0.018 -0.009 0.025 0.006 0.007 0.001 0.013 -0.006 0.013h-0.026c-0.007 0 -0.016 0.051 -0.021 0.113 -0.004 0.063 -0.009 -0.24 -0.01 -0.674l-0.003 -0.787h0.13zm6.371 0.125c-0.001 0.466 -0.004 0.806 -0.007 0.756 -0.006 -0.083 -0.009 -0.091 -0.045 -0.1 -0.022 -0.006 -0.031 -0.015 -0.021 -0.018 0.009 -0.004 0.018 -0.013 0.018 -0.021 0 -0.009 -0.009 -0.01 -0.018 -0.004 -0.013 0.007 -0.013 0.003 0.001 -0.013 0.018 -0.022 0.016 -0.025 -0.003 -0.025 -0.015 0 -0.025 0.016 -0.029 0.047 -0.003 0.026 -0.007 -0.293 -0.007 -0.71l-0.003 -0.757h0.117zm-1.167 0.114c-0.05 0.1 -0.108 0.155 -0.324 0.311 -0.384 0.277 -0.792 0.444 -1.283 0.527 -0.24 0.04 -0.725 0.037 -0.971 -0.007 -0.542 -0.097 -0.995 -0.3 -1.409 -0.636 -0.127 -0.101 -0.187 -0.183 -0.209 -0.283 -0.009 -0.038 -0.004 -0.035 0.034 0.025 0.05 0.079 0.265 0.243 0.513 0.394 0.706 0.428 1.721 0.53 2.58 0.259 0.438 -0.138 1.09 -0.561 1.1 -0.713 0.001 -0.018 0.003 -0.018 0.009 0.003 0.004 0.016 -0.013 0.069 -0.038 0.12m-3.485 -0.05c0.356 0.179 0.851 0.277 1.403 0.277 0.551 0 1.046 -0.098 1.406 -0.277 0.117 -0.059 0.161 -0.072 0.161 -0.048 0 0.035 -0.19 0.155 -0.39 0.246 -0.655 0.299 -1.4 0.337 -2.067 0.107 -0.293 -0.101 -0.664 -0.293 -0.664 -0.344 0 -0.031 0.019 -0.026 0.149 0.04m-1.761 0.454c0 -0.012 0.004 -0.018 0.009 -0.012 0.004 0.004 -0.003 0.023 -0.016 0.042 -0.016 0.022 -0.022 0.025 -0.018 0.007 0.006 -0.013 0.003 -0.025 -0.006 -0.025s-0.01 -0.007 -0.004 -0.016c0.006 -0.012 0.013 -0.01 0.022 0.003 0.01 0.018 0.013 0.018 0.013 0m4.83 2.045c-0.004 0.007 0.028 0.012 0.07 0.013 0.057 0 0.104 0.013 0.173 0.047 0.088 0.044 0.166 0.105 0.132 0.105 -0.009 0 -0.021 -0.01 -0.025 -0.022 -0.006 -0.018 -0.015 -0.021 -0.037 -0.007 -0.041 0.021 -0.06 0.019 -0.06 -0.007 0 -0.019 -0.004 -0.019 -0.019 -0.004 -0.018 0.015 -0.016 0.022 0.004 0.041 0.013 0.012 0.016 0.018 0.007 0.013 -0.007 -0.006 -0.053 -0.023 -0.1 -0.041 -0.085 -0.031 -0.085 -0.031 -1.809 -0.031 -0.967 0 -1.715 -0.006 -1.704 -0.013 0.013 -0.009 0.015 -0.015 0.003 -0.023 -0.009 -0.004 -0.028 0.004 -0.042 0.021 -0.013 0.016 -0.051 0.04 -0.083 0.053 -0.057 0.023 -0.057 0.023 -0.029 -0.004 0.016 -0.016 0.034 -0.026 0.038 -0.023s0.007 -0.01 0.006 -0.028c-0.003 -0.025 -0.012 -0.031 -0.038 -0.028 -0.037 0.004 -0.107 0.062 -0.076 0.062 0.01 0 0.023 -0.009 0.029 -0.019 0.006 -0.009 0.025 -0.019 0.04 -0.021 0.023 -0.001 0.022 0.003 -0.012 0.034 -0.021 0.021 -0.035 0.042 -0.031 0.05 0.004 0.006 -0.003 0.016 -0.016 0.021 -0.012 0.004 -0.019 0.003 -0.015 -0.003 0.003 -0.006 0.001 -0.021 -0.007 -0.032 -0.009 -0.016 -0.013 -0.016 -0.013 -0.003 0 0.012 -0.012 0.015 -0.037 0.009 -0.026 -0.006 -0.048 -0.001 -0.07 0.018 -0.029 0.026 -0.031 0.026 -0.01 0.001 0.057 -0.075 0.208 -0.149 0.344 -0.171 0.094 -0.015 3.396 -0.018 3.387 -0.004"/><path d="M12.602 8.243c0.013 0.003 0.034 0.003 0.044 0 0.009 -0.004 -0.001 -0.007 -0.026 -0.007 -0.023 0 -0.032 0.003 -0.018 0.007m4.636 0c0.034 0.003 0.086 0.003 0.117 0 0.029 -0.003 0.001 -0.006 -0.063 -0.006s-0.089 0.003 -0.054 0.006m-0.27 0.062c-0.019 0.019 0 0.029 0.048 0.025 0.029 -0.001 0.075 0 0.098 0.006 0.025 0.006 0.064 0.003 0.088 -0.004 0.034 -0.012 0.045 -0.01 0.062 0.01 0.012 0.016 0.019 0.019 0.023 0.007 0.006 -0.016 0.123 -0.023 0.171 -0.012 0.01 0.003 0.023 -0.003 0.026 -0.013 0.004 -0.012 -0.013 -0.018 -0.057 -0.019 -0.034 -0.001 -0.069 -0.001 -0.076 0 -0.015 0.003 -0.075 0.003 -0.27 -0.003 -0.06 -0.001 -0.11 0 -0.114 0.003m0.617 0.016c-0.004 0.007 -0.001 0.015 0.006 0.015 0.009 0 0.016 -0.007 0.016 -0.015 0 -0.009 -0.003 -0.015 -0.006 -0.015 -0.004 0 -0.012 0.006 -0.016 0.015m-0.501 0.04c0.013 0.003 0.034 0.003 0.044 0 0.009 -0.004 -0.001 -0.007 -0.026 -0.007 -0.023 0 -0.032 0.003 -0.018 0.007m0.274 0.007c0 0.007 0.025 0.012 0.056 0.013 0.047 0.001 0.05 0.003 0.018 0.012 -0.021 0.007 -0.048 0.01 -0.062 0.007 -0.015 -0.003 -0.026 0.001 -0.026 0.01 0 0.007 -0.007 0.013 -0.016 0.013 -0.007 0 -0.01 -0.006 -0.006 -0.015s-0.001 -0.01 -0.013 -0.006c-0.013 0.004 -0.019 0.016 -0.015 0.026 0.004 0.009 -0.001 0.004 -0.013 -0.01 -0.022 -0.026 -0.072 -0.029 -0.108 -0.006 -0.009 0.006 -0.021 0.004 -0.025 -0.003 -0.012 -0.018 -0.126 -0.007 -0.146 0.013 -0.016 0.016 0.001 0.021 0.064 0.015 0.021 -0.001 0.032 0.001 0.026 0.007 -0.009 0.009 -0.044 0.015 -0.119 0.021 -0.007 0.001 -0.007 0.009 -0.001 0.018 0.006 0.012 0.013 0.01 0.022 -0.003 0.007 -0.013 0.013 -0.015 0.013 -0.004s0.016 0.016 0.035 0.015c0.019 0 0.031 -0.009 0.026 -0.016 -0.004 -0.009 0.001 -0.007 0.013 0.001 0.012 0.01 0.07 0.016 0.138 0.015 0.064 -0.001 0.133 0.001 0.154 0.007 0.021 0.004 0.051 0.004 0.067 -0.001 0.016 -0.007 0.04 -0.006 0.051 0.001 0.018 0.01 0.018 0.013 -0.001 0.015 -0.012 0.001 -0.031 0 -0.042 -0.001 -0.016 -0.001 -0.016 0.003 0.003 0.021 0.012 0.013 0.038 0.023 0.057 0.023s0.026 -0.004 0.018 -0.012c-0.013 -0.007 -0.012 -0.016 0.003 -0.029 0.012 -0.01 0.021 -0.012 0.021 -0.003 0 0.007 0.009 0.015 0.021 0.015 0.028 0 0.044 0.047 0.021 0.062 -0.01 0.006 -0.012 0.012 -0.004 0.013 0.009 0 0.032 0.003 0.053 0.006 0.025 0.003 0.038 -0.001 0.038 -0.016 0 -0.012 -0.01 -0.019 -0.022 -0.018 -0.012 0.003 -0.025 -0.003 -0.028 -0.012 -0.003 -0.01 0.007 -0.015 0.031 -0.01 0.031 0.006 0.037 0.003 0.031 -0.023 -0.003 -0.019 0.001 -0.031 0.015 -0.031 0.012 0 0.019 -0.013 0.018 -0.028 0 -0.016 -0.009 -0.028 -0.016 -0.026 -0.009 0.001 -0.015 -0.004 -0.016 -0.015 0 -0.026 -0.022 -0.041 -0.022 -0.015 0 0.013 -0.006 0.025 -0.015 0.025 -0.007 0 -0.013 -0.007 -0.01 -0.018 0.001 -0.01 -0.019 -0.022 -0.048 -0.028 -0.042 -0.007 -0.045 -0.01 -0.015 -0.013 0.029 -0.003 0.031 -0.004 0.009 -0.01 -0.015 -0.004 -0.034 0 -0.042 0.009s-0.023 0.016 -0.031 0.016c-0.009 0 -0.006 -0.007 0.006 -0.015 0.019 -0.012 0.018 -0.015 -0.003 -0.015 -0.015 0 -0.026 0.009 -0.026 0.018 0 0.013 -0.004 0.012 -0.015 -0.003 -0.013 -0.022 -0.117 -0.032 -0.117 -0.012m0.18 0.066c-0.01 0.003 -0.028 0.003 -0.037 0 -0.01 -0.004 -0.003 -0.007 0.018 -0.007s0.028 0.003 0.019 0.007m-5.175 -0.003c0 0.007 0.029 0.015 0.064 0.016 0.045 0 0.063 -0.004 0.057 -0.018 -0.007 -0.021 -0.122 -0.021 -0.122 0.001m0.17 -0.009c-0.026 0.01 -0.026 0.012 -0.004 0.021 0.015 0.006 0.047 0.006 0.072 0 0.04 -0.007 0.042 -0.01 0.019 -0.021 -0.037 -0.015 -0.051 -0.015 -0.086 0m4.261 0.001c0.006 0.009 0.016 0.012 0.023 0.007 0.021 -0.013 0.016 -0.022 -0.01 -0.022 -0.012 0 -0.018 0.007 -0.013 0.015m0.1 0.04c0.013 0.003 0.034 0.003 0.044 0 0.009 -0.004 -0.001 -0.007 -0.026 -0.007 -0.023 0 -0.032 0.003 -0.018 0.007M12.48 8.481c-0.012 0.007 -0.015 0.015 -0.007 0.015 0.009 0 0.025 -0.007 0.037 -0.015s0.016 -0.015 0.007 -0.015c-0.007 0 -0.025 0.007 -0.037 0.015m4.307 0.006c0.01 0.01 0.019 0.01 0.029 0 0.009 -0.009 0.004 -0.015 -0.015 -0.015s-0.023 0.006 -0.015 0.015M12.393 8.54c0 0.007 0.01 0.01 0.022 0.006 0.012 -0.006 0.022 -0.012 0.022 -0.015s-0.01 -0.006 -0.022 -0.006 -0.022 0.006 -0.022 0.015m0.041 0.04c0.01 0.004 0.023 0.003 0.028 -0.001 0.006 -0.004 -0.003 -0.009 -0.019 -0.007 -0.016 0 -0.021 0.004 -0.009 0.009"/><path d="M17.498 8.584c-0.006 0.009 0.009 0.015 0.032 0.015 0.032 0 0.037 -0.003 0.019 -0.015 -0.028 -0.018 -0.04 -0.018 -0.051 0m0.205 0.015c0.004 0.007 0.016 0.015 0.023 0.015 0.009 0 0.01 -0.007 0.006 -0.015 -0.004 -0.009 -0.016 -0.015 -0.023 -0.015 -0.009 0 -0.01 0.006 -0.006 0.015m-0.145 0.042c0.013 0.013 0.066 0.016 0.057 0.003 -0.004 -0.009 -0.021 -0.013 -0.037 -0.012 -0.015 0.001 -0.025 0.004 -0.021 0.009m-0.089 0.06c0.003 0.006 -0.01 0.009 -0.029 0.006 -0.021 -0.001 -0.037 0.003 -0.037 0.01 0 0.009 -0.009 0.01 -0.018 0.004 -0.01 -0.006 -0.015 -0.006 -0.009 0.001 0.006 0.006 0.04 0.013 0.073 0.016s0.07 0.009 0.081 0.012c0.023 0.009 0.092 -0.019 0.092 -0.038 0 -0.007 -0.006 -0.009 -0.015 -0.004 -0.007 0.004 -0.015 0.003 -0.015 -0.003 0 -0.007 -0.029 -0.013 -0.066 -0.013 -0.035 -0.001 -0.062 0.003 -0.059 0.009m-0.032 0.079c0.003 0.007 0.021 0.016 0.041 0.019 0.023 0.003 0.029 0 0.015 -0.009 -0.016 -0.01 -0.016 -0.013 0 -0.021 0.012 -0.003 0.003 -0.006 -0.019 -0.004 -0.023 0 -0.04 0.007 -0.037 0.015m0.091 0.007c-0.004 0.009 0.006 0.012 0.023 0.009 0.019 -0.004 0.044 0.001 0.056 0.012 0.021 0.016 0.021 0.015 0.003 -0.009 -0.022 -0.026 -0.067 -0.034 -0.082 -0.012m0.103 0.104c0.004 0.007 0.023 0.015 0.041 0.013 0.031 0 0.031 -0.001 0.003 -0.013 -0.041 -0.018 -0.054 -0.018 -0.044 0M12.759 9.11c-0.1 0.031 -0.167 0.086 -0.211 0.173 -0.035 0.069 -0.031 0.229 0.007 0.308 0.095 0.196 0.368 0.243 0.533 0.091 0.146 -0.136 0.145 -0.366 -0.003 -0.497 -0.092 -0.081 -0.214 -0.108 -0.327 -0.075m0.227 0.151c0.035 0.026 0.081 0.105 0.081 0.138 0 0.006 -0.015 -0.001 -0.032 -0.018 -0.079 -0.069 -0.158 -0.101 -0.158 -0.062 0 0.009 -0.019 -0.001 -0.044 -0.025 -0.023 -0.022 -0.04 -0.047 -0.035 -0.054 0.004 -0.006 0.04 -0.012 0.078 -0.012 0.05 0 0.082 0.009 0.111 0.032m-0.255 0.138 0.05 0.053 -0.048 -0.028c-0.041 -0.023 -0.05 -0.023 -0.062 -0.004 -0.01 0.016 -0.015 0.01 -0.015 -0.026 0 -0.025 0.006 -0.047 0.012 -0.047s0.035 0.023 0.063 0.053m4.291 -0.283c-0.083 0.028 -0.183 0.138 -0.204 0.227 -0.056 0.227 0.104 0.428 0.338 0.428 0.139 -0.001 0.264 -0.088 0.305 -0.212 0.029 -0.089 0.013 -0.242 -0.034 -0.312 -0.078 -0.119 -0.264 -0.179 -0.406 -0.13m0.182 0.111c0.026 0.01 0.025 0.016 -0.025 0.069 -0.048 0.051 -0.053 0.054 -0.054 0.023 0 -0.018 -0.006 -0.032 -0.012 -0.032 -0.016 0 -0.129 0.081 -0.142 0.101 -0.021 0.034 -0.034 0.015 -0.022 -0.029 0.031 -0.107 0.155 -0.171 0.255 -0.132m0.149 0.193c0.006 0.056 0.004 0.06 -0.009 0.028 -0.025 -0.057 -0.047 -0.062 -0.095 -0.018 -0.029 0.026 -0.025 0.018 0.015 -0.028 0.032 -0.037 0.064 -0.062 0.07 -0.057 0.007 0.006 0.016 0.04 0.019 0.075m0.911 0.434c0.01 0.004 0.023 0.003 0.028 -0.001 0.006 -0.004 -0.003 -0.009 -0.019 -0.007 -0.016 0 -0.021 0.004 -0.009 0.009m-0.376 0.306c0 0.016 0.004 0.021 0.009 0.009 0.004 -0.01 0.003 -0.023 -0.001 -0.028 -0.004 -0.006 -0.009 0.003 -0.007 0.019m-6.311 0.016c-0.019 0.003 -0.034 0.016 -0.034 0.029 0 0.019 0.003 0.021 0.025 0.003 0.016 -0.015 0.021 -0.015 0.013 -0.003 -0.006 0.01 -0.007 0.019 -0.003 0.019s0.015 -0.013 0.023 -0.029 0.013 -0.028 0.012 -0.028c-0.003 0.001 -0.019 0.006 -0.037 0.009m6.214 0.044c-0.032 0.028 -0.045 0.045 -0.029 0.035 0.044 -0.023 0.119 -0.089 0.103 -0.089 -0.007 0.001 -0.041 0.025 -0.073 0.054m0.649 -0.015c0.01 0.004 0.023 0.003 0.028 -0.001 0.006 -0.004 -0.003 -0.009 -0.019 -0.007 -0.016 0 -0.021 0.004 -0.009 0.009m-6.995 0.144c0.01 0.007 0.018 0.023 0.015 0.032 -0.009 0.026 0.078 0.025 0.088 -0.001q0.009 -0.02 -0.031 -0.018c-0.023 0.001 -0.038 -0.006 -0.037 -0.016 0.003 -0.009 -0.01 -0.016 -0.026 -0.015 -0.023 0.001 -0.026 0.004 -0.009 0.018m0.18 -0.009c-0.004 0.006 0 0.023 0.012 0.038 0.016 0.022 0.019 0.023 0.019 0.001 0 -0.013 -0.006 -0.023 -0.013 -0.023s-0.009 -0.007 -0.004 -0.015c0.004 -0.009 0.006 -0.015 0.001 -0.015s-0.01 0.006 -0.015 0.013m6.397 -0.001c-0.032 0.01 -0.032 0.01 0.004 0.028 0.031 0.015 0.037 0.015 0.029 -0.003 -0.004 -0.012 0.004 -0.023 0.018 -0.026 0.018 -0.004 0.019 -0.007 0.003 -0.007 -0.012 0 -0.037 0.004 -0.054 0.009m0.105 0.003c-0.004 0.007 -0.001 0.015 0.006 0.015 0.009 0 0.016 -0.007 0.016 -0.015 0 -0.009 -0.003 -0.015 -0.006 -0.015 -0.004 0 -0.012 0.006 -0.016 0.015m0.067 0.009c0 0.016 0.004 0.021 0.009 0.009 0.004 -0.01 0.003 -0.023 -0.001 -0.028 -0.004 -0.006 -0.009 0.003 -0.007 0.019M11.572 10.386c0 0.007 0.006 0.015 0.013 0.015 0.009 0 0.019 -0.007 0.023 -0.015 0.004 -0.009 -0.001 -0.015 -0.013 -0.015 -0.013 0 -0.023 0.006 -0.023 0.015m0.19 0.001c0 0.007 0.007 0.01 0.015 0.006 0.009 -0.004 0.015 -0.012 0.015 -0.016 0 -0.003 -0.006 -0.006 -0.015 -0.006 -0.007 0 -0.015 0.007 -0.015 0.016m6.325 0.009c0.01 0.004 0.023 0.003 0.028 -0.001 0.006 -0.004 -0.003 -0.009 -0.019 -0.007 -0.016 0 -0.021 0.004 -0.009 0.009m-6.368 0.035c-0.001 0.013 -0.015 0.028 -0.031 0.032 -0.034 0.009 -0.04 0.04 -0.007 0.04 0.025 0 0.056 -0.053 0.045 -0.078 -0.003 -0.01 -0.007 -0.007 -0.007 0.006m0.028 -0.001c0 0.009 0.01 0.015 0.022 0.015s0.022 -0.003 0.022 -0.006 -0.01 -0.009 -0.022 -0.015c-0.012 -0.004 -0.022 -0.001 -0.022 0.006m0.04 0.048c-0.004 0.012 0 0.021 0.01 0.021s0.019 -0.009 0.019 -0.021c0 -0.01 -0.006 -0.019 -0.012 -0.019s-0.013 0.009 -0.018 0.019m6.479 -0.004c-0.05 0.007 -0.05 0.009 -0.012 0.016 0.022 0.004 0.047 0.003 0.059 -0.003 0.028 -0.018 0.01 -0.023 -0.047 -0.013m-0.015 0.044c0.012 0.007 0.029 0.015 0.037 0.015 0.009 0 0.004 -0.007 -0.007 -0.015s-0.028 -0.015 -0.037 -0.015c-0.007 0 -0.004 0.007 0.007 0.015m-6.57 0.015c-0.004 0.007 -0.001 0.015 0.006 0.015 0.009 0 0.016 -0.007 0.016 -0.015 0 -0.009 -0.003 -0.015 -0.006 -0.015 -0.004 0 -0.012 0.006 -0.016 0.015m-0.139 0.059c0 0.007 0.006 0.015 0.013 0.015 0.009 0 0.019 -0.007 0.023 -0.015 0.004 -0.009 -0.001 -0.015 -0.013 -0.015 -0.013 0 -0.023 0.006 -0.023 0.015m0.095 0.073c-0.004 0.007 0.001 0.015 0.015 0.015s0.019 -0.007 0.015 -0.015c-0.004 -0.009 -0.012 -0.015 -0.015 -0.015s-0.01 0.006 -0.015 0.015m-0.029 0.146c0.004 0.007 0.012 0.015 0.016 0.015 0.003 0 0.006 -0.007 0.006 -0.015 0 -0.009 -0.007 -0.015 -0.016 -0.015 -0.007 0 -0.01 0.006 -0.006 0.015m6.501 0.01c0.013 0.003 0.034 0.003 0.044 0 0.009 -0.004 -0.001 -0.007 -0.026 -0.007 -0.023 0 -0.032 0.003 -0.018 0.007m0.073 0.073c-0.022 0.007 -0.025 0.034 -0.006 0.034 0.007 0 0.016 -0.01 0.022 -0.022 0.004 -0.012 0.006 -0.022 0.004 -0.021 -0.001 0 -0.012 0.004 -0.021 0.009m-0.041 0.078c-0.006 0.009 0.001 0.01 0.016 0.004 0.018 -0.006 0.022 -0.004 0.015 0.007 -0.006 0.01 -0.001 0.018 0.015 0.018 0.019 0 0.021 -0.004 0.006 -0.022 -0.021 -0.025 -0.038 -0.028 -0.051 -0.007m-0.086 0.032c0.004 0.007 0.015 0.009 0.022 0.004 0.019 -0.013 0.016 -0.018 -0.009 -0.018 -0.012 0 -0.018 0.006 -0.013 0.013M11.733 11.074c0 0.007 0.007 0.015 0.015 0.015 0.009 0 0.015 -0.007 0.015 -0.015 0 -0.009 -0.006 -0.015 -0.015 -0.015 -0.007 0 -0.015 0.006 -0.015 0.015m-0.146 0.044c-0.012 0.007 0 0.01 0.026 0.01 0.025 -0.001 0.042 -0.006 0.038 -0.009 -0.012 -0.013 -0.045 -0.013 -0.064 -0.001m0.104 0.111c0 0.016 0.004 0.021 0.009 0.009 0.004 -0.01 0.003 -0.023 -0.001 -0.028 -0.004 -0.006 -0.009 0.003 -0.007 0.019m0.937 1.494c0 0.016 0.004 0.021 0.009 0.009 0.004 -0.01 0.003 -0.023 -0.001 -0.028 -0.004 -0.006 -0.009 0.003 -0.007 0.019m-0.286 0.001c-0.018 0.018 -0.009 0.032 0.013 0.025q0.024 -0.011 0.013 0.018c-0.007 0.023 -0.006 0.023 0.007 0.006 0.009 -0.012 0.016 -0.026 0.016 -0.031 0 -0.015 -0.04 -0.028 -0.05 -0.018m0.078 0c-0.001 0.006 -0.001 0.016 0 0.022 0 0.007 -0.004 0.012 -0.013 0.012 -0.007 0 -0.015 0.006 -0.015 0.015s0.015 0.007 0.037 -0.003c0.021 -0.009 0.035 -0.023 0.032 -0.032 -0.006 -0.019 -0.04 -0.029 -0.041 -0.013m0.11 0.007c-0.006 0.01 -0.004 0.012 0.006 0.006s0.018 -0.003 0.018 0.004c0 0.009 0.006 0.016 0.015 0.016 0.007 0 0.01 -0.01 0.006 -0.022 -0.01 -0.026 -0.029 -0.028 -0.044 -0.004m-0.365 0.1c-0.004 0.007 0.001 0.015 0.015 0.015s0.019 -0.007 0.015 -0.015c-0.004 -0.009 -0.012 -0.015 -0.015 -0.015s-0.01 0.006 -0.015 0.015m5.149 0.015c0 0.007 0.007 0.015 0.015 0.015 0.009 0 0.015 -0.007 0.015 -0.015 0 -0.009 -0.006 -0.015 -0.015 -0.015 -0.007 0 -0.015 0.006 -0.015 0.015m-5.186 0.013c0 0.007 0.007 0.019 0.015 0.023 0.009 0.004 0.015 0.003 0.015 -0.006 0 -0.007 -0.006 -0.019 -0.015 -0.023 -0.007 -0.004 -0.015 -0.003 -0.015 0.006m0.051 0.016c-0.004 0.007 -0.001 0.015 0.006 0.015 0.009 0 0.016 -0.007 0.016 -0.015 0 -0.009 -0.003 -0.015 -0.006 -0.015 -0.004 0 -0.012 0.006 -0.016 0.015m5.273 0.073c0.004 0.007 0.012 0.015 0.016 0.015 0.003 0 0.006 -0.007 0.006 -0.015 0 -0.009 -0.007 -0.015 -0.016 -0.015 -0.007 0 -0.01 0.006 -0.006 0.015m-0.044 0.015c0.004 0.007 0.012 0.015 0.016 0.015 0.003 0 0.006 -0.007 0.006 -0.015 0 -0.009 -0.007 -0.015 -0.016 -0.015 -0.007 0 -0.01 0.006 -0.006 0.015m-0.63 0.059c0.004 0.007 0.022 0.015 0.038 0.015s0.025 -0.007 0.021 -0.015c-0.004 -0.009 -0.022 -0.015 -0.038 -0.015s-0.025 0.006 -0.021 0.015m0.125 0c0 0.007 0.007 0.015 0.016 0.015 0.007 0 0.01 -0.007 0.006 -0.015 -0.004 -0.009 -0.012 -0.015 -0.016 -0.015 -0.003 0 -0.006 0.006 -0.006 0.015m-3.896 0.073c0 0.007 0.007 0.015 0.015 0.015 0.009 0 0.015 -0.007 0.015 -0.015 0 -0.009 -0.006 -0.015 -0.015 -0.015 -0.007 0 -0.015 0.006 -0.015 0.015m3.643 0.018c-0.01 0.031 0.101 0.035 0.13 0.004 0.021 -0.019 0.021 -0.022 0 -0.022 -0.013 0 -0.023 0.006 -0.023 0.012 0 0.015 -0.078 0.013 -0.089 -0.001 -0.004 -0.007 -0.013 -0.003 -0.018 0.007M13.022 13.14c-0.018 0.012 -0.016 0.015 0.012 0.015 0.018 0 0.032 -0.007 0.032 -0.015 0 -0.019 -0.016 -0.019 -0.044 0m0.073 0c0 0.009 0.01 0.015 0.022 0.015s0.022 -0.003 0.022 -0.006 -0.01 -0.009 -0.022 -0.015c-0.012 -0.004 -0.022 -0.001 -0.022 0.006m3.618 0.073c0 0.007 0.01 0.01 0.022 0.006 0.012 -0.006 0.022 -0.012 0.022 -0.015s-0.01 -0.006 -0.022 -0.006 -0.022 0.006 -0.022 0.015m-3.379 0.051c-0.023 0.013 -0.026 0.019 -0.01 0.034 0.028 0.025 0.059 0.023 0.037 -0.001 -0.021 -0.026 -0.003 -0.045 0.019 -0.021 0.009 0.01 0.015 0.015 0.013 0.012 -0.003 -0.003 0.006 -0.013 0.018 -0.022 0.019 -0.013 0.016 -0.016 -0.012 -0.016 -0.019 0 -0.047 0.007 -0.064 0.015m3.155 0.012c-0.004 0.012 0.001 0.021 0.013 0.021 0.01 0 0.022 -0.009 0.026 -0.021 0.004 -0.01 -0.001 -0.019 -0.012 -0.019 -0.012 0 -0.023 0.009 -0.028 0.019m-0.101 0.006c0.01 0.004 0.023 0.003 0.028 -0.001 0.006 -0.004 -0.003 -0.009 -0.019 -0.007 -0.016 0 -0.021 0.004 -0.009 0.009M13.389 13.329c0 0.009 -0.012 0.012 -0.025 0.007 -0.023 -0.007 -0.023 -0.006 0 0.009 0.019 0.012 0.032 0.013 0.042 0.003 0.009 -0.009 0.009 -0.018 -0.001 -0.023 -0.009 -0.006 -0.016 -0.004 -0.016 0.004m0.234 0.019c0 0.006 0.034 0.01 0.073 0.01 0.041 -0.001 0.07 -0.006 0.066 -0.012 -0.013 -0.013 -0.139 -0.013 -0.139 0.001m0.173 0.007c0.01 0.004 0.023 0.003 0.028 -0.001 0.006 -0.004 -0.003 -0.009 -0.019 -0.007 -0.016 0 -0.021 0.004 -0.009 0.009m-0.29 0.129c0 0.012 0.003 0.022 0.006 0.022s0.009 -0.01 0.015 -0.022c0.004 -0.012 0.001 -0.022 -0.006 -0.022 -0.009 0 -0.015 0.01 -0.015 0.022m0.051 -0.007c0.004 0.007 0.012 0.015 0.016 0.015 0.003 0 0.006 -0.007 0.006 -0.015 0 -0.009 -0.007 -0.015 -0.016 -0.015 -0.007 0 -0.01 0.006 -0.006 0.015m0.095 0.015c0.031 0.023 0.04 0.025 0.059 0.007 0.015 -0.012 0.051 -0.018 0.107 -0.015 0.045 0.001 0.083 -0.003 0.083 -0.009 0 -0.007 -0.045 -0.012 -0.103 -0.012 -0.085 0.001 -0.103 0.006 -0.103 0.026 -0.001 0.021 -0.003 0.021 -0.021 -0.003 -0.01 -0.013 -0.028 -0.025 -0.04 -0.025s-0.006 0.012 0.016 0.029m0.277 -0.009c0.015 0.016 0.012 0.022 -0.009 0.028 -0.022 0.006 -0.021 0.007 0.004 0.009 0.038 0.001 0.057 -0.037 0.026 -0.048 -0.035 -0.013 -0.04 -0.01 -0.022 0.012m0.082 -0.006c0.004 0.007 0.012 0.015 0.016 0.015 0.003 0 0.006 -0.007 0.006 -0.015 0 -0.009 -0.007 -0.015 -0.016 -0.015 -0.007 0 -0.01 0.006 -0.006 0.015m0.037 0c0 0.009 0.016 0.012 0.041 0.006 0.057 -0.015 0.059 -0.021 0.006 -0.021 -0.026 0 -0.047 0.007 -0.047 0.015m2.213 0.022c-0.001 0.018 -0.006 0.023 -0.013 0.013 -0.007 -0.013 -0.016 -0.012 -0.029 0.003 -0.016 0.018 -0.015 0.021 0.009 0.021 0.015 0 0.04 -0.01 0.056 -0.023 0.015 -0.012 0.021 -0.019 0.01 -0.015 -0.009 0.006 -0.021 0 -0.023 -0.009 -0.004 -0.01 -0.009 -0.006 -0.009 0.01m0.17 0.003c-0.019 0.018 -0.01 0.045 0.012 0.042 0.034 -0.004 0.044 -0.023 0.013 -0.023 -0.023 0 -0.025 -0.003 -0.006 -0.015 0.012 -0.007 0.015 -0.015 0.006 -0.015s-0.021 0.004 -0.025 0.01m-0.376 0.021c0 0.004 -0.015 0.016 -0.032 0.025 -0.019 0.009 -0.025 0.016 -0.015 0.016 0.018 0.001 0.105 -0.038 0.105 -0.047 0 -0.003 -0.013 -0.004 -0.029 -0.004s-0.029 0.004 -0.029 0.01m0.249 0.013c-0.013 0.009 -0.015 0.015 -0.004 0.015 0.009 0 0.022 -0.007 0.026 -0.015 0.012 -0.018 0.006 -0.018 -0.022 0m-2.584 0.062c0.007 0.012 0 0.013 -0.021 0.009 -0.018 -0.006 -0.029 -0.003 -0.023 0.004 0.012 0.021 0.083 0.015 0.114 -0.009 0.016 -0.012 0.022 -0.022 0.015 -0.022 -0.009 0 -0.023 0.009 -0.034 0.018 -0.016 0.015 -0.021 0.015 -0.026 0 -0.004 -0.009 -0.013 -0.018 -0.021 -0.018 -0.009 0 -0.01 0.007 -0.004 0.018m0.248 0.012c-0.004 0.007 -0.001 0.015 0.006 0.015 0.009 0 0.016 -0.007 0.016 -0.015 0 -0.009 -0.003 -0.015 -0.006 -0.015 -0.004 0 -0.012 0.006 -0.016 0.015m2.331 0.01c0.007 0.007 0.018 0.018 0.023 0.026s0.012 0.003 0.012 -0.012c0 -0.013 -0.01 -0.025 -0.025 -0.025 -0.013 0 -0.018 0.004 -0.01 0.01m-2.344 0.045c-0.003 0.006 0.01 0.013 0.032 0.015 0.031 0.001 0.035 0 0.018 -0.012 -0.026 -0.018 -0.04 -0.018 -0.05 -0.003m-0.085 0.013c0.01 0.004 0.023 0.003 0.028 -0.001 0.006 -0.004 -0.003 -0.009 -0.019 -0.007 -0.016 0 -0.021 0.004 -0.009 0.009m1.592 0.019c-0.016 0.006 0.003 0.016 0.051 0.028 0.041 0.01 0.079 0.015 0.083 0.01 0.006 -0.004 0.001 -0.009 -0.007 -0.009 -0.01 0 -0.018 -0.01 -0.018 -0.023 0 -0.021 -0.003 -0.022 -0.025 -0.004 -0.015 0.012 -0.021 0.013 -0.015 0.003 0.012 -0.018 -0.025 -0.021 -0.07 -0.004m0.208 0.004c0.004 0.007 0.025 0.009 0.047 0.004 0.025 -0.007 0.031 -0.006 0.018 0.003 -0.037 0.025 0.006 0.029 0.057 0.007 0.029 -0.013 0.042 -0.025 0.032 -0.029s-0.029 0.001 -0.042 0.013c-0.019 0.015 -0.022 0.015 -0.013 0s-0.003 -0.018 -0.048 -0.016c-0.032 0.003 -0.054 0.01 -0.05 0.018m-2.093 0.006c0.01 0.004 0.023 0.003 0.028 -0.001 0.006 -0.004 -0.003 -0.009 -0.019 -0.007 -0.016 0 -0.021 0.004 -0.009 0.009m1.247 0.023c-0.013 0.028 -0.012 0.029 0.004 0.01 0.01 -0.013 0.032 -0.021 0.048 -0.018s0.023 0.001 0.018 -0.006c-0.022 -0.023 -0.054 -0.018 -0.07 0.013m0.186 -0.016c0.004 0.007 0.015 0.009 0.022 0.004 0.019 -0.013 0.016 -0.018 -0.009 -0.018 -0.012 0 -0.018 0.006 -0.013 0.013m0.108 0c0 0.006 0.013 0.012 0.029 0.012s0.029 -0.006 0.029 -0.012 -0.013 -0.012 -0.029 -0.012 -0.029 0.006 -0.029 0.012m0.205 -0.001c0 0.007 0.007 0.01 0.015 0.006 0.009 -0.004 0.015 -0.012 0.015 -0.016 0 -0.003 -0.006 -0.006 -0.015 -0.006 -0.007 0 -0.015 0.007 -0.015 0.016m-1.018 0.013c-0.004 0.007 -0.007 0.015 -0.004 0.016 0.037 0.009 0.054 0.009 0.048 -0.001 -0.004 -0.007 0.007 -0.016 0.025 -0.019 0.025 -0.004 0.022 -0.007 -0.013 -0.009 -0.025 0 -0.051 0.004 -0.056 0.013m0.139 0.001c-0.018 0.012 -0.015 0.013 0.013 0.006 0.022 -0.007 0.04 -0.003 0.047 0.009 0.012 0.018 0.015 0.018 0.026 0 0.007 -0.01 0.019 -0.016 0.026 -0.012s0.022 0.003 0.034 -0.006c0.015 -0.009 -0.001 -0.013 -0.051 -0.013 -0.04 0 -0.083 0.007 -0.095 0.016m0.193 -0.001c0.015 0.009 0.037 0.01 0.059 0.001 0.029 -0.013 0.026 -0.015 -0.025 -0.015 -0.045 0 -0.053 0.003 -0.034 0.013m-0.472 0.021c0 0.003 0.01 0.01 0.023 0.015 0.012 0.004 0.018 0.003 0.013 -0.006 -0.009 -0.015 -0.037 -0.021 -0.037 -0.009m-4.727 1.135c-0.001 0.018 0.009 0.025 0.034 0.025 0.042 0 0.042 0 0.001 -0.028 -0.031 -0.019 -0.034 -0.019 -0.035 0.003m0.056 0.127c0 0.016 0.004 0.021 0.009 0.009 0.004 -0.01 0.003 -0.023 -0.001 -0.028 -0.004 -0.006 -0.009 0.003 -0.007 0.019m12.886 -0.804c0.01 0.004 0.023 0.003 0.028 -0.001 0.006 -0.004 -0.003 -0.009 -0.019 -0.007 -0.016 0 -0.021 0.004 -0.009 0.009m-9.097 6.722c0.025 0.012 0.047 0.028 0.047 0.038 0 0.009 0.004 0.013 0.009 0.009 0.018 -0.019 -0.032 -0.07 -0.067 -0.069s-0.034 0.001 0.012 0.022m3.331 0.001c0.003 0.018 0.019 0.028 0.048 0.029l0.044 0.003 -0.044 -0.013c-0.023 -0.006 -0.035 -0.012 -0.025 -0.013 0.01 0 0.015 -0.009 0.01 -0.016 -0.015 -0.025 -0.04 -0.016 -0.034 0.01m-0.125 0.025c-0.006 0.015 -0.001 0.019 0.012 0.013 0.012 -0.004 0.018 -0.013 0.013 -0.021 -0.01 -0.018 -0.016 -0.016 -0.025 0.007"/></svg>